<svg id="Слой_1" data-name="Слой 1" xmlns="http://www.w3.org/2000/svg" viewBox="0 0 157 20"><path d="M5,16h8V14H5m16,0V10H19v4H15v2h4v4h2V16h4V14M17,6H5V8H17m0,2H5v2H17Z" transform="translate(-5 -2.61)"/><path d="M48,3a6.5,6.5,0,0,1,4.94,10.73l.27.27H54l5,5-1.5,1.5-5-5v-.79l-.27-.27A6.5,6.5,0,1,1,48,3m0,2a4.5,4.5,0,1,0,4.5,4.5A4.48,4.48,0,0,0,48,5Z" transform="translate(-5 -2.61)"/><path d="M86.5,5v6h1.17L85.5,13.17,83.33,11H84.5V5h2m2-2h-6V9h-4l7,7,7-7h-4V3m4,15h-14v2h14Z" transform="translate(-5 -2.61)"/><path d="M120.75,2.61a10,10,0,1,0,10,10,10,10,0,0,0-10-10m-4.93,16.28c.43-.9,3.05-1.78,4.93-1.78s4.5.88,4.93,1.78a7.93,7.93,0,0,1-9.86,0m11.29-1.45c-1.43-1.74-4.9-2.33-6.36-2.33s-4.93.59-6.36,2.33a7.93,7.93,0,0,1-1.64-4.83,8,8,0,1,1,16,0,7.93,7.93,0,0,1-1.64,4.83M120.75,6.61a3.5,3.5,0,1,0,3.5,3.5,3.49,3.49,0,0,0-3.5-3.5m0,5a1.5,1.5,0,1,1,1.5-1.5A1.5,1.5,0,0,1,120.75,11.61Z" transform="translate(-5 -2.61)"/><path d="M156,3V13.55A4,4,0,1,0,157.46,19a3.93,3.93,0,0,0,.54-2V7h4V3m-8,16a2,2,0,1,1,2-2A2,2,0,0,1,154,19Z" transform="translate(-5 -2.61)"/></svg>