<svg id="Слой_1" data-name="Слой 1" xmlns="http://www.w3.org/2000/svg" viewBox="0 0 168 24"><path d="M6,16h8V14H6m16,0V10H20v4H16v2h4v4h2V16h4V14M18,6H6V8H18m0,2H6v2H18Z"/><path d="M49,3a6.5,6.5,0,0,1,4.94,10.73l.27.27H55l5,5-1.5,1.5-5-5v-.79l-.27-.27A6.5,6.5,0,1,1,49,3m0,2a4.5,4.5,0,1,0,4.5,4.5A4.48,4.48,0,0,0,49,5Z"/><path d="M87.5,5v6h1.17L86.5,13.17,84.33,11H85.5V5h2m2-2h-6V9h-4l7,7,7-7h-4V3m4,15h-14v2h14Z"/><path d="M121.75,2.61a10,10,0,1,0,10,10,10,10,0,0,0-10-10m-4.93,16.28c.43-.9,3.05-1.78,4.93-1.78s4.5.88,4.93,1.78a7.93,7.93,0,0,1-9.86,0m11.29-1.45c-1.43-1.74-4.9-2.33-6.36-2.33s-4.93.59-6.36,2.33a7.93,7.93,0,0,1-1.64-4.83,8,8,0,1,1,16,0,7.93,7.93,0,0,1-1.64,4.83M121.75,6.61a3.5,3.5,0,1,0,3.5,3.5,3.49,3.49,0,0,0-3.5-3.5m0,5a1.5,1.5,0,1,1,1.5-1.5A1.5,1.5,0,0,1,121.75,11.61Z"/><path d="M157,3V13.55A4,4,0,1,0,158.46,19a3.93,3.93,0,0,0,.54-2V7h4V3m-8,16a2,2,0,1,1,2-2A2,2,0,0,1,155,19Z"/></svg>