<svg id="svg" version="1.1" xmlns="http://www.w3.org/2000/svg" xmlns:xlink="http://www.w3.org/1999/xlink" width="400" height="400" viewBox="0, 0, 400,400"><g id="svgg"><path id="path0" d="M186.800 59.644 C 179.588 60.789,179.468 60.812,174.000 62.070 C 172.136 62.499,167.791 63.727,164.996 64.615 C 131.216 75.351,103.421 106.299,96.775 140.576 C 93.073 159.670,94.949 168.000,102.951 168.000 C 108.376 168.000,111.200 164.593,111.199 158.051 C 111.199 153.107,112.765 141.992,113.968 138.400 C 114.152 137.850,114.903 135.510,115.637 133.200 C 121.862 113.599,138.257 94.922,158.200 84.712 C 166.704 80.358,176.381 77.271,187.000 75.526 C 191.211 74.834,209.233 74.819,212.700 75.505 C 214.075 75.777,216.325 76.204,217.700 76.454 C 219.922 76.857,221.651 77.271,225.800 78.394 C 250.608 85.108,273.284 105.240,282.802 129.000 C 286.368 137.903,288.800 149.609,288.800 157.870 C 288.800 167.253,297.143 171.935,303.011 165.844 C 306.023 162.718,306.312 158.232,304.353 145.000 C 298.473 105.275,266.626 71.426,226.300 62.042 C 221.263 60.870,220.382 60.706,213.167 59.603 C 210.005 59.119,189.909 59.151,186.800 59.644 M53.270 177.726 C 52.067 179.006,52.115 179.146,54.600 181.600 C 56.944 183.915,57.243 184.606,56.061 184.981 C 54.878 185.356,54.287 187.056,54.897 188.329 C 56.266 191.184,59.663 190.557,59.928 187.400 C 60.044 186.017,59.849 185.671,57.772 183.572 C 55.516 181.292,55.420 180.997,56.465 179.549 C 57.584 177.997,54.610 176.299,53.270 177.726 M341.227 184.852 C 340.829 185.506,340.173 186.842,339.770 187.821 C 338.979 189.738,338.495 189.943,337.028 188.982 C 334.360 187.233,331.403 190.948,333.726 193.130 C 335.783 195.063,337.407 194.158,339.568 189.877 C 340.609 187.816,341.088 187.230,341.568 187.429 C 343.322 188.156,343.574 188.082,344.261 186.642 C 345.379 184.297,342.572 182.641,341.227 184.852 M90.171 189.202 C 80.860 189.864,78.000 193.958,78.000 206.624 C 78.000 214.466,77.993 214.494,75.798 215.026 C 69.979 216.437,69.600 217.973,69.600 240.125 C 69.600 262.131,69.937 263.512,75.722 265.220 L 77.600 265.775 77.605 272.787 C 77.612 284.114,79.214 287.749,85.360 290.383 C 88.288 291.638,123.616 291.487,126.200 290.208 C 128.380 289.130,130.836 286.590,131.910 284.304 L 132.800 282.409 132.800 240.362 L 132.800 198.314 131.593 195.785 C 130.100 192.656,127.638 190.563,124.244 189.536 C 122.783 189.093,95.462 188.826,90.171 189.202 M279.600 189.204 C 273.130 189.644,269.477 192.322,267.798 197.857 C 266.982 200.546,266.910 280.568,267.721 282.800 C 269.035 286.418,271.389 289.036,274.533 290.376 C 276.391 291.168,277.179 291.200,294.875 291.200 L 313.284 291.200 315.342 290.170 C 321.175 287.251,322.400 284.314,322.400 273.254 L 322.400 265.600 323.300 265.589 C 325.052 265.567,327.762 263.812,329.100 261.832 L 330.400 259.910 330.400 240.339 C 330.400 221.565,330.367 220.704,329.601 219.202 C 328.577 217.195,326.466 215.513,324.303 214.982 L 322.600 214.563 322.375 206.582 C 322.252 202.192,321.947 198.009,321.699 197.286 C 320.366 193.404,316.926 190.228,313.200 189.437 C 311.390 189.053,284.565 188.867,279.600 189.204 M362.414 222.183 C 362.137 222.517,361.988 223.563,362.065 224.632 C 362.164 225.996,362.038 226.576,361.600 226.785 C 361.270 226.942,360.460 227.330,359.800 227.648 C 357.176 228.910,358.116 231.669,361.277 231.987 C 363.223 232.182,363.433 232.303,363.801 233.439 C 364.987 237.109,368.937 236.807,368.791 233.058 C 368.693 230.551,368.707 230.519,370.074 230.245 C 374.405 229.379,373.445 224.754,369.071 225.410 L 367.288 225.678 366.792 224.139 C 365.969 221.586,363.737 220.589,362.414 222.183 M46.924 262.100 C 46.746 262.375,46.300 263.770,45.933 265.200 C 43.764 273.656,44.045 273.141,42.194 272.050 C 38.073 269.618,33.392 273.650,35.448 277.861 C 37.788 282.651,43.035 281.214,44.619 275.349 C 44.968 274.057,45.568 271.830,45.952 270.400 C 46.707 267.587,46.729 267.574,49.634 268.135 C 51.020 268.402,51.085 268.361,51.565 266.906 C 52.666 263.567,52.436 262.769,50.200 262.171 C 47.671 261.494,47.321 261.486,46.924 262.100 M345.429 281.429 C 345.083 281.774,344.799 282.629,344.797 283.329 C 344.795 284.321,344.532 284.750,343.597 285.281 C 341.639 286.396,342.387 288.791,344.525 288.254 C 345.302 288.059,345.575 288.258,346.130 289.422 C 347.318 291.913,349.600 291.360,349.600 288.581 C 349.600 287.538,349.792 287.239,350.588 287.039 C 353.449 286.321,352.402 283.343,349.417 283.705 C 348.891 283.769,348.444 283.406,348.055 282.600 C 347.151 280.725,346.446 280.411,345.429 281.429 M107.029 310.229 C 106.683 310.574,106.399 311.429,106.397 312.129 C 106.395 313.121,106.132 313.550,105.197 314.081 C 103.239 315.196,103.987 317.591,106.125 317.054 C 106.902 316.859,107.175 317.058,107.730 318.222 C 108.918 320.713,111.200 320.160,111.200 317.381 C 111.200 316.338,111.392 316.039,112.188 315.839 C 115.049 315.121,114.002 312.143,111.017 312.505 C 110.491 312.569,110.044 312.206,109.655 311.400 C 108.751 309.525,108.046 309.211,107.029 310.229 " stroke="none" fill="#3ca2ed" fill-rule="evenodd"></path><path id="path1" d="M177.700 0.275 C 175.665 0.360,174.000 0.603,174.000 0.815 C 174.000 1.027,172.740 1.200,171.200 1.200 C 169.600 1.200,168.400 1.371,168.400 1.600 C 168.400 1.822,167.333 2.000,166.000 2.000 C 164.667 2.000,163.600 2.178,163.600 2.400 C 163.600 2.620,162.700 2.800,161.600 2.800 C 160.500 2.800,159.600 2.980,159.600 3.200 C 159.600 3.420,158.700 3.600,157.600 3.600 C 156.500 3.600,155.600 3.780,155.600 4.000 C 155.600 4.220,154.880 4.400,154.000 4.400 C 153.120 4.400,152.400 4.580,152.400 4.800 C 152.400 5.020,151.680 5.200,150.800 5.200 C 149.920 5.200,149.200 5.380,149.200 5.600 C 149.200 5.820,148.480 6.000,147.600 6.000 C 146.720 6.000,146.000 6.180,146.000 6.400 C 146.000 6.620,145.381 6.800,144.624 6.800 C 143.867 6.800,143.136 6.980,143.000 7.200 C 142.864 7.420,142.223 7.600,141.576 7.600 C 140.929 7.600,140.400 7.780,140.400 8.000 C 140.400 8.220,139.860 8.400,139.200 8.400 C 138.540 8.400,138.000 8.580,138.000 8.800 C 138.000 9.020,137.460 9.200,136.800 9.200 C 136.140 9.200,135.600 9.380,135.600 9.600 C 135.600 9.820,135.060 10.000,134.400 10.000 C 133.740 10.000,133.200 10.180,133.200 10.400 C 133.200 10.620,132.660 10.800,132.000 10.800 C 131.340 10.800,130.800 10.980,130.800 11.200 C 130.800 11.420,130.361 11.600,129.824 11.600 C 129.287 11.600,128.736 11.780,128.600 12.000 C 128.464 12.220,128.003 12.400,127.576 12.400 C 127.149 12.400,126.800 12.580,126.800 12.800 C 126.800 13.020,126.260 13.200,125.600 13.200 C 124.940 13.200,124.400 13.380,124.400 13.600 C 124.400 13.820,124.040 14.000,123.600 14.000 C 123.160 14.000,122.800 14.180,122.800 14.400 C 122.800 14.620,122.361 14.800,121.824 14.800 C 121.287 14.800,120.736 14.980,120.600 15.200 C 120.464 15.420,120.003 15.600,119.576 15.600 C 119.149 15.600,118.800 15.780,118.800 16.000 C 118.800 16.220,118.440 16.400,118.000 16.400 C 117.560 16.400,117.200 16.580,117.200 16.800 C 117.200 17.020,116.840 17.200,116.400 17.200 C 115.960 17.200,115.600 17.380,115.600 17.600 C 115.600 17.820,115.285 17.999,114.900 17.997 C 114.000 17.994,106.000 22.002,106.000 22.457 C 106.000 22.645,105.640 22.800,105.200 22.800 C 104.760 22.800,104.400 22.980,104.400 23.200 C 104.400 23.420,104.040 23.600,103.600 23.600 C 103.160 23.600,102.800 23.780,102.800 24.000 C 102.800 24.220,102.440 24.400,102.000 24.400 C 101.560 24.400,101.200 24.580,101.200 24.800 C 101.200 25.020,100.880 25.200,100.488 25.200 C 100.097 25.200,99.517 25.560,99.200 26.000 C 98.883 26.440,98.303 26.800,97.912 26.800 C 97.520 26.800,97.200 26.980,97.200 27.200 C 97.200 27.420,96.880 27.600,96.488 27.600 C 96.097 27.600,95.517 27.960,95.200 28.400 C 94.883 28.840,94.303 29.200,93.912 29.200 C 93.520 29.200,93.200 29.380,93.200 29.600 C 93.200 29.820,92.964 30.000,92.675 30.000 C 92.387 30.000,91.764 30.360,91.292 30.800 C 90.820 31.240,90.196 31.600,89.905 31.600 C 89.614 31.600,89.117 31.960,88.800 32.400 C 88.483 32.840,87.943 33.200,87.600 33.200 C 87.257 33.200,86.717 33.560,86.400 34.000 C 86.083 34.440,85.620 34.800,85.371 34.800 C 85.122 34.800,84.354 35.340,83.663 36.000 C 82.972 36.660,82.175 37.200,81.892 37.200 C 81.609 37.200,81.117 37.560,80.800 38.000 C 80.483 38.440,80.015 38.800,79.760 38.800 C 79.505 38.800,78.555 39.520,77.648 40.400 C 76.741 41.280,75.805 42.000,75.568 42.000 C 75.331 42.000,74.446 42.720,73.600 43.600 C 72.754 44.480,71.884 45.200,71.666 45.200 C 71.448 45.200,70.173 46.280,68.832 47.600 C 67.492 48.920,66.219 50.000,66.005 50.000 C 65.496 50.000,50.000 65.496,50.000 66.005 C 50.000 66.219,48.920 67.492,47.600 68.832 C 46.280 70.173,45.200 71.448,45.200 71.666 C 45.200 71.884,44.480 72.754,43.600 73.600 C 42.720 74.446,42.000 75.331,42.000 75.568 C 42.000 75.805,41.280 76.741,40.400 77.648 C 39.520 78.555,38.800 79.505,38.800 79.760 C 38.800 80.015,38.440 80.483,38.000 80.800 C 37.560 81.117,37.200 81.609,37.200 81.892 C 37.200 82.175,36.660 82.972,36.000 83.663 C 35.340 84.354,34.800 85.122,34.800 85.371 C 34.800 85.620,34.440 86.083,34.000 86.400 C 33.560 86.717,33.200 87.257,33.200 87.600 C 33.200 87.943,32.840 88.483,32.400 88.800 C 31.960 89.117,31.600 89.614,31.600 89.905 C 31.600 90.196,31.240 90.820,30.800 91.292 C 30.360 91.764,30.000 92.387,30.000 92.675 C 30.000 92.964,29.820 93.200,29.600 93.200 C 29.380 93.200,29.200 93.520,29.200 93.912 C 29.200 94.303,28.840 94.883,28.400 95.200 C 27.960 95.517,27.600 96.097,27.600 96.488 C 27.600 96.880,27.420 97.200,27.200 97.200 C 26.980 97.200,26.800 97.520,26.800 97.912 C 26.800 98.303,26.440 98.883,26.000 99.200 C 25.560 99.517,25.200 100.097,25.200 100.488 C 25.200 100.880,25.020 101.200,24.800 101.200 C 24.580 101.200,24.400 101.560,24.400 102.000 C 24.400 102.440,24.220 102.800,24.000 102.800 C 23.780 102.800,23.600 103.160,23.600 103.600 C 23.600 104.040,23.420 104.400,23.200 104.400 C 22.980 104.400,22.800 104.760,22.800 105.200 C 22.800 105.640,22.645 106.000,22.457 106.000 C 22.002 106.000,17.994 114.000,17.997 114.900 C 17.999 115.285,17.820 115.600,17.600 115.600 C 17.380 115.600,17.200 115.960,17.200 116.400 C 17.200 116.840,17.020 117.200,16.800 117.200 C 16.580 117.200,16.400 117.560,16.400 118.000 C 16.400 118.440,16.220 118.800,16.000 118.800 C 15.780 118.800,15.600 119.149,15.600 119.576 C 15.600 120.003,15.420 120.464,15.200 120.600 C 14.980 120.736,14.800 121.287,14.800 121.824 C 14.800 122.361,14.620 122.800,14.400 122.800 C 14.180 122.800,14.000 123.160,14.000 123.600 C 14.000 124.040,13.820 124.400,13.600 124.400 C 13.380 124.400,13.200 124.940,13.200 125.600 C 13.200 126.260,13.020 126.800,12.800 126.800 C 12.580 126.800,12.400 127.149,12.400 127.576 C 12.400 128.003,12.220 128.464,12.000 128.600 C 11.780 128.736,11.600 129.287,11.600 129.824 C 11.600 130.361,11.420 130.800,11.200 130.800 C 10.980 130.800,10.800 131.340,10.800 132.000 C 10.800 132.660,10.620 133.200,10.400 133.200 C 10.180 133.200,10.000 133.740,10.000 134.400 C 10.000 135.060,9.820 135.600,9.600 135.600 C 9.380 135.600,9.200 136.140,9.200 136.800 C 9.200 137.460,9.020 138.000,8.800 138.000 C 8.580 138.000,8.400 138.540,8.400 139.200 C 8.400 139.860,8.220 140.400,8.000 140.400 C 7.780 140.400,7.600 140.929,7.600 141.576 C 7.600 142.223,7.420 142.864,7.200 143.000 C 6.980 143.136,6.800 143.867,6.800 144.624 C 6.800 145.381,6.620 146.000,6.400 146.000 C 6.180 146.000,6.000 146.720,6.000 147.600 C 6.000 148.480,5.820 149.200,5.600 149.200 C 5.380 149.200,5.200 149.920,5.200 150.800 C 5.200 151.680,5.020 152.400,4.800 152.400 C 4.580 152.400,4.400 153.120,4.400 154.000 C 4.400 154.880,4.220 155.600,4.000 155.600 C 3.780 155.600,3.600 156.500,3.600 157.600 C 3.600 158.700,3.420 159.600,3.200 159.600 C 2.980 159.600,2.800 160.500,2.800 161.600 C 2.800 162.700,2.620 163.600,2.400 163.600 C 2.178 163.600,2.000 164.667,2.000 166.000 C 2.000 167.333,1.822 168.400,1.600 168.400 C 1.372 168.400,1.200 169.589,1.200 171.167 C 1.200 173.024,1.036 173.988,0.700 174.100 C -0.032 174.344,-0.032 225.656,0.700 225.900 C 1.036 226.012,1.200 226.976,1.200 228.833 C 1.200 230.411,1.372 231.600,1.600 231.600 C 1.822 231.600,2.000 232.667,2.000 234.000 C 2.000 235.333,2.178 236.400,2.400 236.400 C 2.620 236.400,2.800 237.300,2.800 238.400 C 2.800 239.500,2.980 240.400,3.200 240.400 C 3.420 240.400,3.600 241.300,3.600 242.400 C 3.600 243.500,3.780 244.400,4.000 244.400 C 4.220 244.400,4.400 245.120,4.400 246.000 C 4.400 246.880,4.580 247.600,4.800 247.600 C 5.020 247.600,5.200 248.320,5.200 249.200 C 5.200 250.080,5.380 250.800,5.600 250.800 C 5.820 250.800,6.000 251.520,6.000 252.400 C 6.000 253.280,6.180 254.000,6.400 254.000 C 6.620 254.000,6.800 254.619,6.800 255.376 C 6.800 256.133,6.980 256.864,7.200 257.000 C 7.420 257.136,7.600 257.777,7.600 258.424 C 7.600 259.071,7.780 259.600,8.000 259.600 C 8.220 259.600,8.400 260.140,8.400 260.800 C 8.400 261.460,8.580 262.000,8.800 262.000 C 9.020 262.000,9.200 262.540,9.200 263.200 C 9.200 263.860,9.380 264.400,9.600 264.400 C 9.820 264.400,10.000 264.940,10.000 265.600 C 10.000 266.260,10.180 266.800,10.400 266.800 C 10.620 266.800,10.800 267.340,10.800 268.000 C 10.800 268.660,10.980 269.200,11.200 269.200 C 11.420 269.200,11.600 269.639,11.600 270.176 C 11.600 270.713,11.780 271.264,12.000 271.400 C 12.220 271.536,12.400 271.997,12.400 272.424 C 12.400 272.851,12.580 273.200,12.800 273.200 C 13.020 273.200,13.200 273.740,13.200 274.400 C 13.200 275.060,13.380 275.600,13.600 275.600 C 13.820 275.600,14.000 275.960,14.000 276.400 C 14.000 276.840,14.180 277.200,14.400 277.200 C 14.620 277.200,14.800 277.639,14.800 278.176 C 14.800 278.713,14.980 279.264,15.200 279.400 C 15.420 279.536,15.600 279.997,15.600 280.424 C 15.600 280.851,15.780 281.200,16.000 281.200 C 16.220 281.200,16.400 281.560,16.400 282.000 C 16.400 282.440,16.580 282.800,16.800 282.800 C 17.020 282.800,17.200 283.160,17.200 283.600 C 17.200 284.040,17.380 284.400,17.600 284.400 C 17.820 284.400,17.999 284.715,17.997 285.100 C 17.994 286.000,22.002 294.000,22.457 294.000 C 22.645 294.000,22.800 294.360,22.800 294.800 C 22.800 295.240,22.980 295.600,23.200 295.600 C 23.420 295.600,23.600 295.960,23.600 296.400 C 23.600 296.840,23.780 297.200,24.000 297.200 C 24.220 297.200,24.400 297.560,24.400 298.000 C 24.400 298.440,24.580 298.800,24.800 298.800 C 25.020 298.800,25.200 299.120,25.200 299.512 C 25.200 299.903,25.560 300.483,26.000 300.800 C 26.440 301.117,26.800 301.697,26.800 302.088 C 26.800 302.480,26.980 302.800,27.200 302.800 C 27.420 302.800,27.600 303.120,27.600 303.512 C 27.600 303.903,27.960 304.483,28.400 304.800 C 28.840 305.117,29.200 305.697,29.200 306.088 C 29.200 306.480,29.380 306.800,29.600 306.800 C 29.820 306.800,30.000 307.036,30.000 307.325 C 30.000 307.613,30.360 308.236,30.800 308.708 C 31.240 309.180,31.600 309.804,31.600 310.095 C 31.600 310.386,31.960 310.883,32.400 311.200 C 32.840 311.517,33.200 312.057,33.200 312.400 C 33.200 312.743,33.560 313.283,34.000 313.600 C 34.440 313.917,34.800 314.380,34.800 314.629 C 34.800 314.878,35.340 315.646,36.000 316.337 C 36.660 317.028,37.200 317.825,37.200 318.108 C 37.200 318.391,37.560 318.883,38.000 319.200 C 38.440 319.517,38.800 319.985,38.800 320.240 C 38.800 320.495,39.520 321.445,40.400 322.352 C 41.280 323.259,42.000 324.195,42.000 324.432 C 42.000 324.669,42.720 325.554,43.600 326.400 C 44.480 327.246,45.200 328.116,45.200 328.334 C 45.200 328.552,46.280 329.827,47.600 331.168 C 48.920 332.508,50.000 333.781,50.000 333.995 C 50.000 334.504,65.496 350.000,66.005 350.000 C 66.219 350.000,67.492 351.080,68.832 352.400 C 70.173 353.720,71.448 354.800,71.666 354.800 C 71.884 354.800,72.754 355.520,73.600 356.400 C 74.446 357.280,75.331 358.000,75.568 358.000 C 75.805 358.000,76.741 358.720,77.648 359.600 C 78.555 360.480,79.505 361.200,79.760 361.200 C 80.015 361.200,80.483 361.560,80.800 362.000 C 81.117 362.440,81.609 362.800,81.892 362.800 C 82.175 362.800,82.972 363.340,83.663 364.000 C 84.354 364.660,85.122 365.200,85.371 365.200 C 85.620 365.200,86.083 365.560,86.400 366.000 C 86.717 366.440,87.257 366.800,87.600 366.800 C 87.943 366.800,88.483 367.160,88.800 367.600 C 89.117 368.040,89.614 368.400,89.905 368.400 C 90.196 368.400,90.820 368.760,91.292 369.200 C 91.764 369.640,92.387 370.000,92.675 370.000 C 92.964 370.000,93.200 370.180,93.200 370.400 C 93.200 370.620,93.520 370.800,93.912 370.800 C 94.303 370.800,94.883 371.160,95.200 371.600 C 95.517 372.040,96.097 372.400,96.488 372.400 C 96.880 372.400,97.200 372.580,97.200 372.800 C 97.200 373.020,97.520 373.200,97.912 373.200 C 98.303 373.200,98.883 373.560,99.200 374.000 C 99.517 374.440,100.097 374.800,100.488 374.800 C 100.880 374.800,101.200 374.980,101.200 375.200 C 101.200 375.420,101.560 375.600,102.000 375.600 C 102.440 375.600,102.800 375.780,102.800 376.000 C 102.800 376.220,103.160 376.400,103.600 376.400 C 104.040 376.400,104.400 376.580,104.400 376.800 C 104.400 377.020,104.760 377.200,105.200 377.200 C 105.640 377.200,106.000 377.355,106.000 377.543 C 106.000 377.998,114.000 382.006,114.900 382.003 C 115.285 382.001,115.600 382.180,115.600 382.400 C 115.600 382.620,115.960 382.800,116.400 382.800 C 116.840 382.800,117.200 382.980,117.200 383.200 C 117.200 383.420,117.560 383.600,118.000 383.600 C 118.440 383.600,118.800 383.780,118.800 384.000 C 118.800 384.220,119.149 384.400,119.576 384.400 C 120.003 384.400,120.464 384.580,120.600 384.800 C 120.736 385.020,121.287 385.200,121.824 385.200 C 122.361 385.200,122.800 385.380,122.800 385.600 C 122.800 385.820,123.160 386.000,123.600 386.000 C 124.040 386.000,124.400 386.180,124.400 386.400 C 124.400 386.620,124.940 386.800,125.600 386.800 C 126.260 386.800,126.800 386.980,126.800 387.200 C 126.800 387.420,127.149 387.600,127.576 387.600 C 128.003 387.600,128.464 387.780,128.600 388.000 C 128.736 388.220,129.287 388.400,129.824 388.400 C 130.361 388.400,130.800 388.580,130.800 388.800 C 130.800 389.020,131.340 389.200,132.000 389.200 C 132.660 389.200,133.200 389.380,133.200 389.600 C 133.200 389.820,133.740 390.000,134.400 390.000 C 135.060 390.000,135.600 390.180,135.600 390.400 C 135.600 390.620,136.140 390.800,136.800 390.800 C 137.460 390.800,138.000 390.980,138.000 391.200 C 138.000 391.420,138.540 391.600,139.200 391.600 C 139.860 391.600,140.400 391.780,140.400 392.000 C 140.400 392.220,140.929 392.400,141.576 392.400 C 142.223 392.400,142.864 392.580,143.000 392.800 C 143.136 393.020,143.867 393.200,144.624 393.200 C 145.381 393.200,146.000 393.380,146.000 393.600 C 146.000 393.820,146.720 394.000,147.600 394.000 C 148.480 394.000,149.200 394.180,149.200 394.400 C 149.200 394.620,149.920 394.800,150.800 394.800 C 151.680 394.800,152.400 394.980,152.400 395.200 C 152.400 395.420,153.120 395.600,154.000 395.600 C 154.880 395.600,155.600 395.780,155.600 396.000 C 155.600 396.220,156.500 396.400,157.600 396.400 C 158.700 396.400,159.600 396.580,159.600 396.800 C 159.600 397.020,160.500 397.200,161.600 397.200 C 162.700 397.200,163.600 397.380,163.600 397.600 C 163.600 397.822,164.667 398.000,166.000 398.000 C 167.333 398.000,168.400 398.178,168.400 398.400 C 168.400 398.628,169.589 398.800,171.167 398.800 C 173.024 398.800,173.988 398.964,174.100 399.300 C 174.231 399.693,179.769 399.800,200.000 399.800 C 220.231 399.800,225.769 399.693,225.900 399.300 C 226.012 398.964,226.976 398.800,228.833 398.800 C 230.411 398.800,231.600 398.628,231.600 398.400 C 231.600 398.178,232.667 398.000,234.000 398.000 C 235.333 398.000,236.400 397.822,236.400 397.600 C 236.400 397.380,237.300 397.200,238.400 397.200 C 239.500 397.200,240.400 397.020,240.400 396.800 C 240.400 396.580,241.300 396.400,242.400 396.400 C 243.500 396.400,244.400 396.220,244.400 396.000 C 244.400 395.780,245.120 395.600,246.000 395.600 C 246.880 395.600,247.600 395.420,247.600 395.200 C 247.600 394.980,248.320 394.800,249.200 394.800 C 250.080 394.800,250.800 394.620,250.800 394.400 C 250.800 394.180,251.520 394.000,252.400 394.000 C 253.280 394.000,254.000 393.820,254.000 393.600 C 254.000 393.380,254.619 393.200,255.376 393.200 C 256.133 393.200,256.864 393.020,257.000 392.800 C 257.136 392.580,257.777 392.400,258.424 392.400 C 259.071 392.400,259.600 392.220,259.600 392.000 C 259.600 391.780,260.140 391.600,260.800 391.600 C 261.460 391.600,262.000 391.420,262.000 391.200 C 262.000 390.980,262.540 390.800,263.200 390.800 C 263.860 390.800,264.400 390.620,264.400 390.400 C 264.400 390.180,264.940 390.000,265.600 390.000 C 266.260 390.000,266.800 389.820,266.800 389.600 C 266.800 389.380,267.340 389.200,268.000 389.200 C 268.660 389.200,269.200 389.020,269.200 388.800 C 269.200 388.580,269.639 388.400,270.176 388.400 C 270.713 388.400,271.264 388.220,271.400 388.000 C 271.536 387.780,271.997 387.600,272.424 387.600 C 272.851 387.600,273.200 387.420,273.200 387.200 C 273.200 386.980,273.740 386.800,274.400 386.800 C 275.060 386.800,275.600 386.620,275.600 386.400 C 275.600 386.180,275.960 386.000,276.400 386.000 C 276.840 386.000,277.200 385.820,277.200 385.600 C 277.200 385.380,277.639 385.200,278.176 385.200 C 278.713 385.200,279.264 385.020,279.400 384.800 C 279.536 384.580,279.997 384.400,280.424 384.400 C 280.851 384.400,281.200 384.220,281.200 384.000 C 281.200 383.780,281.560 383.600,282.000 383.600 C 282.440 383.600,282.800 383.420,282.800 383.200 C 282.800 382.980,283.160 382.800,283.600 382.800 C 284.040 382.800,284.400 382.620,284.400 382.400 C 284.400 382.180,284.715 382.001,285.100 382.003 C 286.000 382.006,294.000 377.998,294.000 377.543 C 294.000 377.355,294.360 377.200,294.800 377.200 C 295.240 377.200,295.600 377.020,295.600 376.800 C 295.600 376.580,295.960 376.400,296.400 376.400 C 296.840 376.400,297.200 376.220,297.200 376.000 C 297.200 375.780,297.560 375.600,298.000 375.600 C 298.440 375.600,298.800 375.420,298.800 375.200 C 298.800 374.980,299.120 374.800,299.512 374.800 C 299.903 374.800,300.483 374.440,300.800 374.000 C 301.117 373.560,301.697 373.200,302.088 373.200 C 302.480 373.200,302.800 373.020,302.800 372.800 C 302.800 372.580,303.120 372.400,303.512 372.400 C 303.903 372.400,304.483 372.040,304.800 371.600 C 305.117 371.160,305.697 370.800,306.088 370.800 C 306.480 370.800,306.800 370.620,306.800 370.400 C 306.800 370.180,307.036 370.000,307.325 370.000 C 307.613 370.000,308.236 369.640,308.708 369.200 C 309.180 368.760,309.804 368.400,310.095 368.400 C 310.386 368.400,310.883 368.040,311.200 367.600 C 311.517 367.160,312.057 366.800,312.400 366.800 C 312.743 366.800,313.283 366.440,313.600 366.000 C 313.917 365.560,314.380 365.200,314.629 365.200 C 314.878 365.200,315.646 364.660,316.337 364.000 C 317.028 363.340,317.825 362.800,318.108 362.800 C 318.391 362.800,318.883 362.440,319.200 362.000 C 319.517 361.560,319.985 361.200,320.240 361.200 C 320.495 361.200,321.445 360.480,322.352 359.600 C 323.259 358.720,324.195 358.000,324.432 358.000 C 324.669 358.000,325.554 357.280,326.400 356.400 C 327.246 355.520,328.116 354.800,328.334 354.800 C 328.552 354.800,329.827 353.720,331.168 352.400 C 332.508 351.080,333.781 350.000,333.995 350.000 C 334.504 350.000,350.000 334.504,350.000 333.995 C 350.000 333.781,351.080 332.508,352.400 331.168 C 353.720 329.827,354.800 328.552,354.800 328.334 C 354.800 328.116,355.520 327.246,356.400 326.400 C 357.280 325.554,358.000 324.669,358.000 324.432 C 358.000 324.195,358.720 323.259,359.600 322.352 C 360.480 321.445,361.200 320.495,361.200 320.240 C 361.200 319.985,361.560 319.517,362.000 319.200 C 362.440 318.883,362.800 318.391,362.800 318.108 C 362.800 317.825,363.340 317.028,364.000 316.337 C 364.660 315.646,365.200 314.878,365.200 314.629 C 365.200 314.380,365.560 313.917,366.000 313.600 C 366.440 313.283,366.800 312.743,366.800 312.400 C 366.800 312.057,367.160 311.517,367.600 311.200 C 368.040 310.883,368.400 310.386,368.400 310.095 C 368.400 309.804,368.760 309.180,369.200 308.708 C 369.640 308.236,370.000 307.613,370.000 307.325 C 370.000 307.036,370.180 306.800,370.400 306.800 C 370.620 306.800,370.800 306.480,370.800 306.088 C 370.800 305.697,371.160 305.117,371.600 304.800 C 372.040 304.483,372.400 303.903,372.400 303.512 C 372.400 303.120,372.580 302.800,372.800 302.800 C 373.020 302.800,373.200 302.480,373.200 302.088 C 373.200 301.697,373.560 301.117,374.000 300.800 C 374.440 300.483,374.800 299.903,374.800 299.512 C 374.800 299.120,374.980 298.800,375.200 298.800 C 375.420 298.800,375.600 298.440,375.600 298.000 C 375.600 297.560,375.780 297.200,376.000 297.200 C 376.220 297.200,376.400 296.840,376.400 296.400 C 376.400 295.960,376.580 295.600,376.800 295.600 C 377.020 295.600,377.200 295.240,377.200 294.800 C 377.200 294.360,377.355 294.000,377.543 294.000 C 377.998 294.000,382.006 286.000,382.003 285.100 C 382.001 284.715,382.180 284.400,382.400 284.400 C 382.620 284.400,382.800 284.040,382.800 283.600 C 382.800 283.160,382.980 282.800,383.200 282.800 C 383.420 282.800,383.600 282.440,383.600 282.000 C 383.600 281.560,383.780 281.200,384.000 281.200 C 384.220 281.200,384.400 280.851,384.400 280.424 C 384.400 279.997,384.580 279.536,384.800 279.400 C 385.020 279.264,385.200 278.713,385.200 278.176 C 385.200 277.639,385.380 277.200,385.600 277.200 C 385.820 277.200,386.000 276.840,386.000 276.400 C 386.000 275.960,386.180 275.600,386.400 275.600 C 386.620 275.600,386.800 275.060,386.800 274.400 C 386.800 273.740,386.980 273.200,387.200 273.200 C 387.420 273.200,387.600 272.851,387.600 272.424 C 387.600 271.997,387.780 271.536,388.000 271.400 C 388.220 271.264,388.400 270.713,388.400 270.176 C 388.400 269.639,388.580 269.200,388.800 269.200 C 389.020 269.200,389.200 268.660,389.200 268.000 C 389.200 267.340,389.380 266.800,389.600 266.800 C 389.820 266.800,390.000 266.260,390.000 265.600 C 390.000 264.940,390.180 264.400,390.400 264.400 C 390.620 264.400,390.800 263.860,390.800 263.200 C 390.800 262.540,390.980 262.000,391.200 262.000 C 391.420 262.000,391.600 261.460,391.600 260.800 C 391.600 260.140,391.780 259.600,392.000 259.600 C 392.220 259.600,392.400 259.071,392.400 258.424 C 392.400 257.777,392.580 257.136,392.800 257.000 C 393.020 256.864,393.200 256.133,393.200 255.376 C 393.200 254.619,393.380 254.000,393.600 254.000 C 393.820 254.000,394.000 253.280,394.000 252.400 C 394.000 251.520,394.180 250.800,394.400 250.800 C 394.620 250.800,394.800 250.080,394.800 249.200 C 394.800 248.320,394.980 247.600,395.200 247.600 C 395.420 247.600,395.600 246.880,395.600 246.000 C 395.600 245.120,395.780 244.400,396.000 244.400 C 396.220 244.400,396.400 243.500,396.400 242.400 C 396.400 241.300,396.580 240.400,396.800 240.400 C 397.020 240.400,397.200 239.500,397.200 238.400 C 397.200 237.300,397.380 236.400,397.600 236.400 C 397.822 236.400,398.000 235.333,398.000 234.000 C 398.000 232.667,398.178 231.600,398.400 231.600 C 398.628 231.600,398.800 230.411,398.800 228.833 C 398.800 226.976,398.964 226.012,399.300 225.900 C 399.693 225.769,399.800 220.231,399.800 200.000 C 399.800 179.769,399.693 174.231,399.300 174.100 C 398.964 173.988,398.800 173.024,398.800 171.167 C 398.800 169.589,398.628 168.400,398.400 168.400 C 398.178 168.400,398.000 167.333,398.000 166.000 C 398.000 164.667,397.822 163.600,397.600 163.600 C 397.380 163.600,397.200 162.700,397.200 161.600 C 397.200 160.500,397.020 159.600,396.800 159.600 C 396.580 159.600,396.400 158.700,396.400 157.600 C 396.400 156.500,396.220 155.600,396.000 155.600 C 395.780 155.600,395.600 154.880,395.600 154.000 C 395.600 153.120,395.420 152.400,395.200 152.400 C 394.980 152.400,394.800 151.680,394.800 150.800 C 394.800 149.920,394.620 149.200,394.400 149.200 C 394.180 149.200,394.000 148.480,394.000 147.600 C 394.000 146.720,393.820 146.000,393.600 146.000 C 393.380 146.000,393.200 145.381,393.200 144.624 C 393.200 143.867,393.020 143.136,392.800 143.000 C 392.580 142.864,392.400 142.223,392.400 141.576 C 392.400 140.929,392.220 140.400,392.000 140.400 C 391.780 140.400,391.600 139.860,391.600 139.200 C 391.600 138.540,391.420 138.000,391.200 138.000 C 390.980 138.000,390.800 137.460,390.800 136.800 C 390.800 136.140,390.620 135.600,390.400 135.600 C 390.180 135.600,390.000 135.060,390.000 134.400 C 390.000 133.740,389.820 133.200,389.600 133.200 C 389.380 133.200,389.200 132.660,389.200 132.000 C 389.200 131.340,389.020 130.800,388.800 130.800 C 388.580 130.800,388.400 130.361,388.400 129.824 C 388.400 129.287,388.220 128.736,388.000 128.600 C 387.780 128.464,387.600 128.003,387.600 127.576 C 387.600 127.149,387.420 126.800,387.200 126.800 C 386.980 126.800,386.800 126.260,386.800 125.600 C 386.800 124.940,386.620 124.400,386.400 124.400 C 386.180 124.400,386.000 124.040,386.000 123.600 C 386.000 123.160,385.820 122.800,385.600 122.800 C 385.380 122.800,385.200 122.361,385.200 121.824 C 385.200 121.287,385.020 120.736,384.800 120.600 C 384.580 120.464,384.400 120.003,384.400 119.576 C 384.400 119.149,384.220 118.800,384.000 118.800 C 383.780 118.800,383.600 118.440,383.600 118.000 C 383.600 117.560,383.420 117.200,383.200 117.200 C 382.980 117.200,382.800 116.840,382.800 116.400 C 382.800 115.960,382.620 115.600,382.400 115.600 C 382.180 115.600,382.001 115.285,382.003 114.900 C 382.006 114.000,377.998 106.000,377.543 106.000 C 377.355 106.000,377.200 105.640,377.200 105.200 C 377.200 104.760,377.020 104.400,376.800 104.400 C 376.580 104.400,376.400 104.040,376.400 103.600 C 376.400 103.160,376.220 102.800,376.000 102.800 C 375.780 102.800,375.600 102.440,375.600 102.000 C 375.600 101.560,375.420 101.200,375.200 101.200 C 374.980 101.200,374.800 100.880,374.800 100.488 C 374.800 100.097,374.440 99.517,374.000 99.200 C 373.560 98.883,373.200 98.303,373.200 97.912 C 373.200 97.520,373.020 97.200,372.800 97.200 C 372.580 97.200,372.400 96.880,372.400 96.488 C 372.400 96.097,372.040 95.517,371.600 95.200 C 371.160 94.883,370.800 94.303,370.800 93.912 C 370.800 93.520,370.620 93.200,370.400 93.200 C 370.180 93.200,370.000 92.964,370.000 92.675 C 370.000 92.387,369.640 91.764,369.200 91.292 C 368.760 90.820,368.400 90.196,368.400 89.905 C 368.400 89.614,368.040 89.117,367.600 88.800 C 367.160 88.483,366.800 87.943,366.800 87.600 C 366.800 87.257,366.440 86.717,366.000 86.400 C 365.560 86.083,365.200 85.620,365.200 85.371 C 365.200 85.122,364.660 84.354,364.000 83.663 C 363.340 82.972,362.800 82.175,362.800 81.892 C 362.800 81.609,362.440 81.117,362.000 80.800 C 361.560 80.483,361.200 80.015,361.200 79.760 C 361.200 79.505,360.480 78.555,359.600 77.648 C 358.720 76.741,358.000 75.805,358.000 75.568 C 358.000 75.331,357.280 74.446,356.400 73.600 C 355.520 72.754,354.800 71.884,354.800 71.666 C 354.800 71.448,353.720 70.173,352.400 68.832 C 351.080 67.492,350.000 66.219,350.000 66.005 C 350.000 65.496,334.504 50.000,333.995 50.000 C 333.781 50.000,332.508 48.920,331.168 47.600 C 329.827 46.280,328.552 45.200,328.334 45.200 C 328.116 45.200,327.246 44.480,326.400 43.600 C 325.554 42.720,324.669 42.000,324.432 42.000 C 324.195 42.000,323.259 41.280,322.352 40.400 C 321.445 39.520,320.495 38.800,320.240 38.800 C 319.985 38.800,319.517 38.440,319.200 38.000 C 318.883 37.560,318.391 37.200,318.108 37.200 C 317.825 37.200,317.028 36.660,316.337 36.000 C 315.646 35.340,314.878 34.800,314.629 34.800 C 314.380 34.800,313.917 34.440,313.600 34.000 C 313.283 33.560,312.743 33.200,312.400 33.200 C 312.057 33.200,311.517 32.840,311.200 32.400 C 310.883 31.960,310.386 31.600,310.095 31.600 C 309.804 31.600,309.180 31.240,308.708 30.800 C 308.236 30.360,307.613 30.000,307.325 30.000 C 307.036 30.000,306.800 29.820,306.800 29.600 C 306.800 29.380,306.480 29.200,306.088 29.200 C 305.697 29.200,305.117 28.840,304.800 28.400 C 304.483 27.960,303.903 27.600,303.512 27.600 C 303.120 27.600,302.800 27.420,302.800 27.200 C 302.800 26.980,302.480 26.800,302.088 26.800 C 301.697 26.800,301.117 26.440,300.800 26.000 C 300.483 25.560,299.903 25.200,299.512 25.200 C 299.120 25.200,298.800 25.020,298.800 24.800 C 298.800 24.580,298.440 24.400,298.000 24.400 C 297.560 24.400,297.200 24.220,297.200 24.000 C 297.200 23.780,296.840 23.600,296.400 23.600 C 295.960 23.600,295.600 23.420,295.600 23.200 C 295.600 22.980,295.240 22.800,294.800 22.800 C 294.360 22.800,294.000 22.645,294.000 22.457 C 294.000 22.002,286.000 17.994,285.100 17.997 C 284.715 17.999,284.400 17.820,284.400 17.600 C 284.400 17.380,284.040 17.200,283.600 17.200 C 283.160 17.200,282.800 17.020,282.800 16.800 C 282.800 16.580,282.440 16.400,282.000 16.400 C 281.560 16.400,281.200 16.220,281.200 16.000 C 281.200 15.780,280.851 15.600,280.424 15.600 C 279.997 15.600,279.536 15.420,279.400 15.200 C 279.264 14.980,278.713 14.800,278.176 14.800 C 277.639 14.800,277.200 14.620,277.200 14.400 C 277.200 14.180,276.840 14.000,276.400 14.000 C 275.960 14.000,275.600 13.820,275.600 13.600 C 275.600 13.380,275.060 13.200,274.400 13.200 C 273.740 13.200,273.200 13.020,273.200 12.800 C 273.200 12.580,272.851 12.400,272.424 12.400 C 271.997 12.400,271.536 12.220,271.400 12.000 C 271.264 11.780,270.713 11.600,270.176 11.600 C 269.639 11.600,269.200 11.420,269.200 11.200 C 269.200 10.980,268.660 10.800,268.000 10.800 C 267.340 10.800,266.800 10.620,266.800 10.400 C 266.800 10.180,266.260 10.000,265.600 10.000 C 264.940 10.000,264.400 9.820,264.400 9.600 C 264.400 9.380,263.860 9.200,263.200 9.200 C 262.540 9.200,262.000 9.020,262.000 8.800 C 262.000 8.580,261.460 8.400,260.800 8.400 C 260.140 8.400,259.600 8.220,259.600 8.000 C 259.600 7.780,259.071 7.600,258.424 7.600 C 257.777 7.600,257.136 7.420,257.000 7.200 C 256.864 6.980,256.133 6.800,255.376 6.800 C 254.619 6.800,254.000 6.620,254.000 6.400 C 254.000 6.180,253.280 6.000,252.400 6.000 C 251.520 6.000,250.800 5.820,250.800 5.600 C 250.800 5.380,250.080 5.200,249.200 5.200 C 248.320 5.200,247.600 5.020,247.600 4.800 C 247.600 4.580,246.880 4.400,246.000 4.400 C 245.120 4.400,244.400 4.220,244.400 4.000 C 244.400 3.780,243.500 3.600,242.400 3.600 C 241.300 3.600,240.400 3.420,240.400 3.200 C 240.400 2.980,239.500 2.800,238.400 2.800 C 237.300 2.800,236.400 2.620,236.400 2.400 C 236.400 2.178,235.333 2.000,234.000 2.000 C 232.667 2.000,231.600 1.822,231.600 1.600 C 231.600 1.372,230.411 1.200,228.833 1.200 C 227.007 1.200,226.011 1.034,225.904 0.711 C 225.742 0.227,187.143 -0.122,177.700 0.275 M208.732 58.804 C 214.322 59.387,219.162 60.025,221.000 60.422 C 264.686 69.846,294.775 98.883,303.984 140.503 C 305.669 148.119,306.336 161.617,305.136 163.808 C 301.840 169.827,293.692 170.449,290.056 164.960 C 288.782 163.036,288.574 161.950,288.185 155.200 C 286.007 117.387,257.335 84.881,219.400 77.217 C 218.080 76.950,216.640 76.655,216.200 76.560 C 212.907 75.851,205.168 75.206,199.916 75.203 C 163.917 75.185,132.614 95.389,118.055 128.040 C 116.425 131.696,113.993 139.694,113.263 143.800 C 113.029 145.120,112.723 146.830,112.585 147.600 C 112.446 148.370,112.107 152.170,111.830 156.044 C 111.232 164.433,110.664 165.757,106.828 167.700 C 100.181 171.067,94.390 166.389,94.408 157.667 C 94.499 113.435,128.842 71.993,174.000 61.624 C 180.425 60.149,180.902 60.055,184.200 59.613 C 193.411 58.379,201.961 58.097,208.732 58.804 M56.177 177.576 C 57.281 178.728,57.301 179.111,56.329 180.461 C 55.931 181.014,56.110 181.372,57.435 182.661 C 61.812 186.921,61.842 190.400,57.502 190.400 C 54.573 190.400,53.086 186.913,55.200 185.000 C 56.319 183.987,56.251 183.792,54.000 181.600 C 51.784 179.441,51.586 178.692,52.870 177.326 C 54.023 176.098,54.819 176.158,56.177 177.576 M343.900 183.996 C 345.399 184.910,345.435 185.080,344.526 186.986 C 343.824 188.459,343.268 188.679,341.985 187.992 C 341.319 187.635,341.088 187.851,340.166 189.692 C 337.716 194.585,335.233 195.893,333.229 193.346 C 330.891 190.374,334.398 186.442,337.468 188.593 C 338.458 189.286,338.569 189.181,340.000 186.200 C 341.634 182.796,341.789 182.708,343.900 183.996 M126.200 189.852 C 129.189 191.316,131.656 194.084,132.637 197.073 C 133.368 199.301,133.400 201.137,133.400 240.400 C 133.400 287.585,133.694 283.894,129.602 288.020 C 125.966 291.686,126.215 291.651,104.569 291.515 L 86.200 291.400 84.200 290.336 C 78.770 287.446,77.600 284.706,77.600 274.875 C 77.600 266.644,77.509 266.000,76.341 266.000 C 74.223 266.000,70.906 263.311,69.821 260.713 C 68.804 258.279,68.915 221.664,69.946 219.400 C 70.935 217.229,73.444 215.060,75.696 214.429 L 77.556 213.908 77.678 205.654 C 77.815 196.381,78.127 195.181,81.159 192.257 C 84.899 188.651,85.918 188.519,108.862 188.651 L 123.923 188.738 126.200 189.852 M315.823 189.982 C 320.527 192.297,322.400 195.587,322.400 201.533 C 322.400 203.702,322.516 207.378,322.659 209.702 L 322.917 213.929 324.642 214.412 C 326.628 214.968,329.308 217.109,330.310 218.940 C 330.937 220.085,331.000 222.012,331.000 240.000 L 331.000 259.800 329.865 261.731 C 328.594 263.894,325.679 266.000,323.957 266.000 L 322.870 266.000 322.725 274.300 C 322.560 283.726,322.263 284.843,319.079 288.027 C 315.535 291.571,316.764 291.400,294.800 291.400 L 275.400 291.400 273.683 290.483 C 271.346 289.235,268.896 286.701,267.860 284.460 L 267.000 282.600 267.000 240.200 L 267.000 197.800 267.903 195.988 C 271.443 188.880,272.999 188.505,298.338 188.645 L 313.275 188.727 315.823 189.982 M244.451 210.118 C 245.249 210.396,246.635 211.131,247.532 211.753 C 249.160 212.881,249.591 213.401,251.283 216.274 L 252.182 217.800 252.483 265.400 C 252.665 294.148,252.638 313.713,252.416 314.800 C 251.199 320.745,247.386 324.314,241.314 325.192 C 237.674 325.718,162.742 325.717,159.000 325.190 C 152.178 324.231,148.488 320.317,147.636 313.138 C 147.379 310.972,147.349 293.718,147.551 264.000 L 147.861 218.200 148.907 216.152 C 150.060 213.892,152.402 211.677,154.945 210.443 C 157.020 209.436,241.611 209.128,244.451 210.118 M366.196 221.833 C 366.722 222.401,367.209 223.346,367.277 223.933 C 367.394 224.950,367.493 224.994,369.400 224.873 C 373.864 224.589,374.831 229.118,370.600 230.491 C 369.034 230.999,369.003 231.046,369.133 232.690 C 369.461 236.836,364.287 237.639,363.396 233.581 C 363.155 232.483,362.995 232.379,361.665 232.452 C 357.350 232.687,356.122 228.599,360.037 227.032 C 361.587 226.412,361.600 226.388,361.600 224.226 C 361.600 220.913,364.125 219.599,366.196 221.833 M51.300 262.089 C 53.046 262.598,53.167 263.311,52.067 266.600 C 51.352 268.737,51.396 268.717,48.206 268.341 L 47.012 268.200 45.790 272.600 C 44.115 278.628,44.112 278.635,42.748 279.782 C 40.439 281.725,36.330 280.973,34.980 278.360 C 32.618 273.794,37.448 269.177,42.104 271.551 C 43.774 272.402,43.524 272.689,44.587 268.700 C 46.895 260.042,46.298 260.630,51.300 262.089 M347.594 280.800 C 347.774 280.800,348.110 281.340,348.340 282.000 C 348.688 282.999,348.975 283.200,350.048 283.200 C 353.257 283.200,353.702 286.168,350.691 287.500 C 349.817 287.887,349.630 288.182,349.809 288.895 C 350.416 291.317,346.972 292.265,345.800 290.000 C 345.323 289.078,344.906 288.800,343.999 288.800 C 341.428 288.800,340.963 286.043,343.337 284.878 C 344.154 284.477,344.401 284.061,344.406 283.078 C 344.415 281.214,345.377 280.203,346.733 280.632 C 347.026 280.724,347.413 280.800,347.594 280.800 M109.194 309.600 C 109.374 309.600,109.710 310.140,109.940 310.800 C 110.288 311.799,110.575 312.000,111.648 312.000 C 114.857 312.000,115.302 314.968,112.291 316.300 C 111.417 316.687,111.230 316.982,111.409 317.695 C 112.016 320.117,108.572 321.065,107.400 318.800 C 106.923 317.878,106.506 317.600,105.599 317.600 C 103.028 317.600,102.563 314.843,104.937 313.678 C 105.754 313.277,106.001 312.861,106.006 311.878 C 106.015 310.014,106.977 309.003,108.333 309.432 C 108.626 309.524,109.013 309.600,109.194 309.600 " stroke="none" fill="#fbfbfb" fill-rule="evenodd"></path><path id="path2" d="M197.282 59.096 C 198.758 59.173,201.278 59.173,202.882 59.097 C 204.487 59.021,203.280 58.958,200.200 58.958 C 197.120 58.957,195.807 59.019,197.282 59.096 M193.700 75.076 C 194.085 75.176,194.715 75.176,195.100 75.076 C 195.485 74.975,195.170 74.893,194.400 74.893 C 193.630 74.893,193.315 74.975,193.700 75.076 M276.200 90.000 C 277.283 91.100,278.260 92.000,278.370 92.000 C 278.480 92.000,277.683 91.100,276.600 90.000 C 275.517 88.900,274.540 88.000,274.430 88.000 C 274.320 88.000,275.117 88.900,276.200 90.000 M135.578 101.100 L 134.200 102.600 135.700 101.222 C 136.525 100.463,137.200 99.788,137.200 99.722 C 137.200 99.416,136.862 99.704,135.578 101.100 M94.893 155.600 C 94.893 156.370,94.975 156.685,95.076 156.300 C 95.176 155.915,95.176 155.285,95.076 154.900 C 94.975 154.515,94.893 154.830,94.893 155.600 M89.900 189.089 C 90.615 189.178,91.785 189.178,92.500 189.089 C 93.215 189.001,92.630 188.928,91.200 188.928 C 89.770 188.928,89.185 189.001,89.900 189.089 M103.300 189.094 C 104.345 189.176,106.055 189.176,107.100 189.094 C 108.145 189.012,107.290 188.944,105.200 188.944 C 103.110 188.944,102.255 189.012,103.300 189.094 M118.100 189.091 C 118.925 189.178,120.275 189.178,121.100 189.091 C 121.925 189.005,121.250 188.934,119.600 188.934 C 117.950 188.934,117.275 189.005,118.100 189.091 M279.091 189.089 C 279.801 189.177,281.061 189.179,281.891 189.092 C 282.721 189.005,282.140 188.933,280.600 188.931 C 279.060 188.929,278.381 189.000,279.091 189.089 M292.912 189.095 C 293.964 189.177,295.584 189.176,296.512 189.092 C 297.440 189.008,296.580 188.941,294.600 188.942 C 292.620 188.943,291.860 189.012,292.912 189.095 M307.700 189.091 C 308.525 189.178,309.875 189.178,310.700 189.091 C 311.525 189.005,310.850 188.934,309.200 188.934 C 307.550 188.934,306.875 189.005,307.700 189.091 M81.178 192.700 L 79.800 194.200 81.300 192.822 C 82.125 192.063,82.800 191.388,82.800 191.322 C 82.800 191.016,82.462 191.304,81.178 192.700 M77.765 207.200 C 77.765 211.050,77.825 212.625,77.898 210.700 C 77.971 208.775,77.971 205.625,77.898 203.700 C 77.825 201.775,77.765 203.350,77.765 207.200 M75.200 214.818 C 74.762 215.115,74.924 215.152,75.800 214.956 C 77.271 214.627,77.590 214.398,76.567 214.406 C 76.145 214.409,75.530 214.595,75.200 214.818 M323.600 214.800 C 324.968 215.238,326.019 215.238,325.000 214.800 C 324.560 214.611,323.840 214.462,323.400 214.468 C 322.757 214.477,322.796 214.543,323.600 214.800 M326.200 215.452 C 326.420 215.645,327.320 216.432,328.199 217.201 L 329.798 218.600 328.599 217.266 C 327.940 216.532,327.040 215.745,326.600 215.517 C 326.160 215.289,325.980 215.260,326.200 215.452 M330.585 240.200 C 330.585 250.760,330.637 255.023,330.700 249.672 C 330.763 244.322,330.763 235.682,330.700 230.472 C 330.636 225.263,330.585 229.640,330.585 240.200 M132.990 251.400 C 132.990 267.240,133.039 273.662,133.100 265.671 C 133.160 257.679,133.160 244.719,133.100 236.871 C 133.039 229.022,132.990 235.560,132.990 251.400 M187.969 236.769 L 186.800 237.938 186.800 251.150 C 186.800 265.568,186.855 265.955,189.040 266.992 C 190.993 267.919,191.780 267.587,200.200 262.280 C 204.380 259.645,208.700 256.946,209.800 256.280 C 216.260 252.374,215.817 250.308,207.400 245.084 C 204.760 243.445,200.280 240.641,197.445 238.852 C 191.428 235.057,189.997 234.742,187.969 236.769 M197.022 239.254 C 199.870 241.044,203.550 243.350,205.200 244.379 C 213.235 249.387,213.600 249.692,213.600 251.400 C 213.600 253.187,213.357 253.382,203.000 259.885 C 201.240 260.990,198.249 262.888,196.354 264.103 C 192.325 266.685,191.597 266.963,189.766 266.620 C 187.284 266.154,187.200 265.649,187.200 251.251 L 187.200 238.461 188.236 237.231 C 189.910 235.241,191.057 235.505,197.022 239.254 M329.598 261.204 C 329.318 261.880,328.439 262.984,327.645 263.658 C 326.850 264.332,326.560 264.701,327.000 264.478 C 328.418 263.761,330.782 260.649,330.286 260.153 C 330.188 260.055,329.879 260.528,329.598 261.204 M70.717 261.800 C 70.945 262.240,71.732 263.140,72.466 263.799 L 73.800 264.998 72.401 263.399 C 71.632 262.520,70.845 261.620,70.652 261.400 C 70.460 261.180,70.489 261.360,70.717 261.800 M148.157 289.368 C 148.037 289.680,147.998 295.575,148.070 302.468 L 148.200 315.000 149.308 317.257 C 150.537 319.760,153.011 322.258,155.660 323.672 L 157.400 324.600 200.000 324.600 L 242.600 324.600 244.566 323.600 C 251.142 320.254,251.773 318.409,251.920 302.100 L 252.040 288.800 200.207 288.800 C 155.816 288.800,148.344 288.881,148.157 289.368 M176.714 299.230 C 178.901 299.992,179.200 300.941,179.200 307.116 C 179.200 314.565,178.588 315.200,171.413 315.200 C 164.001 315.200,163.200 314.376,163.200 306.758 C 163.200 301.430,163.929 299.500,166.099 299.082 C 168.004 298.716,175.539 298.820,176.714 299.230 M198.311 299.423 C 199.484 300.244,199.709 313.033,198.571 314.171 C 197.678 315.065,195.370 314.970,194.400 314.000 C 193.169 312.769,193.182 301.000,194.416 299.675 C 195.372 298.648,197.050 298.540,198.311 299.423 M207.111 299.423 C 208.284 300.244,208.509 313.033,207.371 314.171 C 206.478 315.065,204.170 314.970,203.200 314.000 C 201.969 312.769,201.982 301.000,203.216 299.675 C 204.172 298.648,205.850 298.540,207.111 299.423 M228.624 301.274 C 229.828 302.332,230.187 302.467,230.737 302.069 C 234.000 299.704,234.327 299.632,235.844 300.937 C 237.303 302.191,237.312 304.022,235.867 305.530 C 234.550 306.905,234.542 307.218,235.800 308.400 C 238.822 311.239,234.844 315.127,231.722 312.385 L 230.339 311.171 228.956 312.385 C 225.628 315.307,221.982 311.150,225.057 307.940 L 226.115 306.836 224.857 305.404 C 222.002 302.153,225.391 298.436,228.624 301.274 " stroke="none" fill="#babdc0" fill-rule="evenodd"></path><path id="path3" d="M191.800 58.763 C 190.700 58.893,194.390 59.000,200.000 59.000 C 205.610 59.000,209.210 58.883,208.000 58.740 C 205.312 58.421,194.549 58.437,191.800 58.763 M184.200 59.600 C 182.434 60.049,184.445 60.069,186.600 59.623 L 188.200 59.292 186.800 59.293 C 186.030 59.294,184.860 59.432,184.200 59.600 M213.400 59.600 C 214.060 59.768,215.230 59.906,216.000 59.907 L 217.400 59.908 215.800 59.577 C 213.645 59.131,211.634 59.151,213.400 59.600 M179.400 60.400 L 178.600 60.744 179.400 60.732 C 179.840 60.726,180.650 60.576,181.200 60.400 L 182.200 60.080 181.200 60.068 C 180.650 60.062,179.840 60.211,179.400 60.400 M219.000 60.400 C 220.692 60.831,222.144 60.831,220.800 60.400 C 220.250 60.224,219.350 60.083,218.800 60.087 C 217.902 60.094,217.922 60.126,219.000 60.400 M175.600 61.200 C 174.796 61.457,174.757 61.523,175.400 61.532 C 175.840 61.538,176.560 61.389,177.000 61.200 C 178.019 60.762,176.968 60.762,175.600 61.200 M223.200 61.200 C 224.568 61.638,225.619 61.638,224.600 61.200 C 224.160 61.011,223.440 60.862,223.000 60.868 C 222.357 60.877,222.396 60.943,223.200 61.200 M172.200 62.000 L 171.400 62.344 172.200 62.344 C 172.640 62.344,173.360 62.189,173.800 62.000 L 174.600 61.656 173.800 61.656 C 173.360 61.656,172.640 61.811,172.200 62.000 M226.600 62.000 C 227.040 62.189,227.670 62.344,228.000 62.344 C 228.378 62.344,228.304 62.217,227.800 62.000 C 227.360 61.811,226.730 61.656,226.400 61.656 C 226.022 61.656,226.096 61.783,226.600 62.000 M169.400 62.800 C 168.896 63.017,168.822 63.144,169.200 63.144 C 169.530 63.144,170.160 62.989,170.600 62.800 C 171.104 62.583,171.178 62.456,170.800 62.456 C 170.470 62.456,169.840 62.611,169.400 62.800 M229.600 62.800 C 229.930 63.013,230.560 63.178,231.000 63.166 L 231.800 63.144 231.000 62.800 C 229.804 62.286,228.805 62.286,229.600 62.800 M166.800 63.600 C 166.267 63.945,166.267 63.988,166.800 63.988 C 167.130 63.988,167.670 63.813,168.000 63.600 C 168.533 63.255,168.533 63.212,168.000 63.212 C 167.670 63.212,167.130 63.387,166.800 63.600 M164.400 64.400 C 163.867 64.745,163.867 64.788,164.400 64.788 C 164.730 64.788,165.270 64.613,165.600 64.400 C 166.133 64.055,166.133 64.012,165.600 64.012 C 165.270 64.012,164.730 64.187,164.400 64.400 M234.800 64.400 C 235.130 64.613,235.670 64.788,236.000 64.788 C 236.533 64.788,236.533 64.745,236.000 64.400 C 235.670 64.187,235.130 64.012,234.800 64.012 C 234.267 64.012,234.267 64.055,234.800 64.400 M162.000 65.200 C 161.467 65.545,161.467 65.588,162.000 65.588 C 162.330 65.588,162.870 65.413,163.200 65.200 C 163.733 64.855,163.733 64.812,163.200 64.812 C 162.870 64.812,162.330 64.987,162.000 65.200 M155.200 68.000 C 154.430 68.422,153.913 68.774,154.051 68.783 C 154.465 68.811,157.200 67.605,157.200 67.395 C 157.200 67.046,156.625 67.220,155.200 68.000 M246.000 68.800 C 246.770 69.222,247.580 69.566,247.800 69.566 C 248.020 69.566,247.570 69.222,246.800 68.800 C 246.030 68.378,245.220 68.034,245.000 68.034 C 244.780 68.034,245.230 68.378,246.000 68.800 M146.100 72.629 C 144.725 73.409,143.600 74.139,143.600 74.253 C 143.600 74.474,147.948 72.106,148.580 71.540 C 149.284 70.910,148.613 71.205,146.100 72.629 M252.400 71.967 C 253.363 72.752,254.000 73.008,254.000 72.610 C 254.000 72.506,253.415 72.135,252.700 71.786 L 251.400 71.152 252.400 71.967 M255.000 73.396 C 255.894 74.139,258.428 75.509,257.800 74.910 C 257.580 74.700,256.680 74.124,255.800 73.630 C 254.920 73.135,254.560 73.030,255.000 73.396 M140.182 76.255 C 127.319 84.882,113.506 99.206,108.412 109.200 C 107.521 110.947,108.589 109.541,111.952 104.536 C 119.190 93.765,129.469 83.703,140.900 76.197 C 142.940 74.857,143.494 74.400,143.074 74.400 C 143.005 74.400,141.704 75.235,140.182 76.255 M197.700 75.096 C 198.965 75.175,201.035 75.175,202.300 75.096 C 203.565 75.016,202.530 74.951,200.000 74.951 C 197.470 74.951,196.435 75.016,197.700 75.096 M187.800 75.600 L 186.600 75.905 187.800 75.923 C 188.460 75.933,189.810 75.797,190.800 75.620 L 192.600 75.300 190.800 75.297 C 189.810 75.296,188.460 75.432,187.800 75.600 M207.633 75.351 C 207.725 75.434,209.060 75.602,210.600 75.725 C 212.366 75.865,212.957 75.827,212.200 75.621 C 210.984 75.290,207.327 75.074,207.633 75.351 M182.800 76.400 L 181.800 76.720 182.800 76.720 C 183.350 76.720,184.250 76.576,184.800 76.400 L 185.800 76.080 184.800 76.080 C 184.250 76.080,183.350 76.224,182.800 76.400 M215.200 76.400 C 215.750 76.576,216.560 76.726,217.000 76.732 L 217.800 76.744 217.000 76.400 C 216.560 76.211,215.750 76.062,215.200 76.068 L 214.200 76.080 215.200 76.400 M179.000 77.200 L 178.200 77.544 179.000 77.544 C 179.440 77.544,180.160 77.389,180.600 77.200 L 181.400 76.856 180.600 76.856 C 180.160 76.856,179.440 77.011,179.000 77.200 M219.400 77.200 C 219.840 77.389,220.560 77.544,221.000 77.544 L 221.800 77.544 221.000 77.200 C 220.560 77.011,219.840 76.856,219.400 76.856 L 218.600 76.856 219.400 77.200 M175.800 78.000 C 174.781 78.438,175.832 78.438,177.200 78.000 C 178.004 77.743,178.043 77.677,177.400 77.668 C 176.960 77.662,176.240 77.811,175.800 78.000 M223.000 78.000 C 223.440 78.189,224.070 78.344,224.400 78.344 C 224.778 78.344,224.704 78.217,224.200 78.000 C 223.760 77.811,223.130 77.656,222.800 77.656 C 222.422 77.656,222.496 77.783,223.000 78.000 M263.340 78.703 C 263.496 78.956,264.191 79.567,264.884 80.060 C 265.577 80.554,266.017 80.750,265.860 80.497 C 265.704 80.244,265.009 79.633,264.316 79.140 C 263.623 78.646,263.183 78.450,263.340 78.703 M228.400 79.600 C 228.730 79.813,229.270 79.988,229.600 79.988 C 230.133 79.988,230.133 79.945,229.600 79.600 C 229.270 79.387,228.730 79.212,228.400 79.212 C 227.867 79.212,227.867 79.255,228.400 79.600 M266.400 80.918 C 266.400 81.020,267.247 81.797,268.281 82.645 C 269.316 83.493,270.034 83.978,269.876 83.723 C 269.540 83.179,266.400 80.645,266.400 80.918 M161.653 83.053 C 160.913 83.376,160.401 83.734,160.516 83.849 C 160.631 83.964,161.416 83.693,162.262 83.247 C 164.035 82.311,163.641 82.186,161.653 83.053 M237.738 83.247 C 238.584 83.693,239.368 83.965,239.481 83.852 C 239.676 83.657,236.980 82.380,236.451 82.418 C 236.313 82.427,236.892 82.800,237.738 83.247 M270.425 84.268 C 270.439 84.450,271.620 85.590,273.049 86.800 C 274.479 88.010,277.077 90.578,278.824 92.507 C 280.571 94.435,282.000 95.902,282.000 95.766 C 282.000 95.631,280.835 94.218,279.410 92.626 C 276.651 89.543,270.383 83.712,270.425 84.268 M156.311 85.760 C 153.987 87.141,153.982 87.406,156.300 86.241 C 157.455 85.661,158.400 85.100,158.400 84.993 C 158.400 84.649,157.829 84.858,156.311 85.760 M243.200 85.779 C 243.200 85.889,243.740 86.259,244.400 86.600 C 245.060 86.941,245.600 87.131,245.600 87.021 C 245.600 86.911,245.060 86.541,244.400 86.200 C 243.740 85.859,243.200 85.669,243.200 85.779 M149.944 89.658 C 141.466 95.223,132.156 104.020,127.247 111.100 C 125.542 113.560,126.758 112.396,128.984 109.438 C 134.137 102.592,142.417 94.961,150.000 90.071 C 153.488 87.821,154.337 87.200,153.924 87.200 C 153.794 87.200,152.003 88.306,149.944 89.658 M246.000 87.295 C 246.560 87.865,255.199 93.521,254.988 93.180 C 254.714 92.737,248.369 88.419,246.800 87.608 C 246.250 87.324,245.890 87.183,246.000 87.295 M255.600 93.733 C 255.600 93.826,256.590 94.749,257.800 95.782 C 259.010 96.816,259.990 97.513,259.978 97.331 C 259.955 96.997,255.600 93.417,255.600 93.733 M283.755 98.119 C 284.603 99.153,285.380 100.000,285.482 100.000 C 285.755 100.000,283.221 96.860,282.677 96.524 C 282.422 96.366,282.907 97.084,283.755 98.119 M263.600 101.000 C 265.460 102.870,267.072 104.400,267.182 104.400 C 267.292 104.400,265.860 102.870,264.000 101.000 C 262.140 99.130,260.528 97.600,260.418 97.600 C 260.308 97.600,261.740 99.130,263.600 101.000 M287.212 102.722 C 288.166 104.108,289.136 105.360,289.367 105.503 C 289.841 105.796,286.992 101.729,286.072 100.800 C 285.745 100.470,286.258 101.335,287.212 102.722 M267.615 105.099 C 267.624 105.264,268.459 106.300,269.471 107.400 C 270.484 108.500,271.067 109.040,270.767 108.600 C 269.892 107.317,267.599 104.769,267.615 105.099 M290.124 107.000 C 290.462 107.660,291.038 108.560,291.404 109.000 C 291.770 109.440,291.665 109.080,291.170 108.200 C 290.080 106.258,289.264 105.322,290.124 107.000 M272.227 111.000 C 273.600 112.800,273.868 112.803,272.704 111.005 C 272.207 110.238,271.656 109.608,271.480 109.605 C 271.303 109.602,271.640 110.230,272.227 111.000 M106.640 112.240 C 106.062 113.275,105.660 114.194,105.748 114.282 C 105.836 114.370,106.382 113.595,106.960 112.560 C 107.538 111.525,107.940 110.606,107.852 110.518 C 107.764 110.430,107.218 111.205,106.640 112.240 M292.872 111.400 C 293.167 112.284,295.625 116.800,295.812 116.800 C 296.036 116.800,293.881 112.533,293.186 111.600 C 292.940 111.270,292.799 111.180,292.872 111.400 M104.600 116.000 C 104.238 116.701,104.026 117.359,104.129 117.462 C 104.232 117.565,104.606 117.069,104.960 116.360 C 105.314 115.651,105.526 114.993,105.431 114.898 C 105.336 114.803,104.962 115.299,104.600 116.000 M123.825 116.218 C 122.286 118.566,120.775 121.309,120.933 121.467 C 121.027 121.560,121.691 120.593,122.410 119.318 C 123.128 118.043,123.981 116.595,124.304 116.100 C 124.627 115.605,124.802 115.200,124.692 115.200 C 124.582 115.200,124.192 115.658,123.825 116.218 M276.031 116.700 C 277.048 118.400,277.600 119.094,277.600 118.671 C 277.600 118.306,275.555 115.200,275.314 115.200 C 275.216 115.200,275.538 115.875,276.031 116.700 M296.018 117.251 C 295.980 117.780,297.257 120.476,297.452 120.281 C 297.565 120.168,297.293 119.384,296.847 118.538 C 296.400 117.692,296.027 117.113,296.018 117.251 M103.023 119.406 C 102.160 121.472,102.274 121.706,103.247 119.862 C 103.693 119.016,103.965 118.232,103.852 118.119 C 103.739 118.006,103.366 118.585,103.023 119.406 M278.186 120.300 C 278.535 121.015,278.906 121.600,279.010 121.600 C 279.408 121.600,279.152 120.963,278.367 120.000 L 277.552 119.000 278.186 120.300 M101.423 123.006 C 100.522 125.164,100.711 125.728,101.637 123.642 C 102.066 122.675,102.334 121.800,102.232 121.698 C 102.130 121.597,101.766 122.185,101.423 123.006 M118.218 126.618 C 117.872 127.446,117.671 128.205,117.771 128.305 C 117.871 128.405,118.236 127.809,118.582 126.982 C 118.928 126.154,119.129 125.395,119.029 125.295 C 118.929 125.195,118.564 125.791,118.218 126.618 M99.400 128.400 C 99.250 128.873,99.217 129.350,99.327 129.460 C 99.437 129.570,99.650 129.273,99.800 128.800 C 99.950 128.327,99.983 127.850,99.873 127.740 C 99.763 127.630,99.550 127.927,99.400 128.400 M98.629 131.029 C 98.481 131.615,98.438 132.172,98.532 132.266 C 98.627 132.360,98.824 131.958,98.971 131.371 C 99.119 130.785,99.162 130.228,99.068 130.134 C 98.973 130.040,98.776 130.442,98.629 131.029 M116.200 131.600 C 116.050 132.073,116.017 132.550,116.127 132.660 C 116.237 132.770,116.450 132.473,116.600 132.000 C 116.750 131.527,116.783 131.050,116.673 130.940 C 116.563 130.830,116.350 131.127,116.200 131.600 M301.656 132.000 C 301.656 132.330,301.811 132.960,302.000 133.400 C 302.217 133.904,302.344 133.978,302.344 133.600 C 302.344 133.270,302.189 132.640,302.000 132.200 C 301.783 131.696,301.656 131.622,301.656 132.000 M97.873 133.353 C 97.723 133.745,97.611 134.366,97.625 134.733 C 97.642 135.175,97.781 135.074,98.037 134.434 C 98.249 133.903,98.361 133.282,98.285 133.054 C 98.209 132.827,98.024 132.961,97.873 133.353 M115.400 134.000 C 115.250 134.473,115.217 134.950,115.327 135.060 C 115.437 135.170,115.650 134.873,115.800 134.400 C 115.950 133.927,115.983 133.450,115.873 133.340 C 115.763 133.230,115.550 133.527,115.400 134.000 M302.456 135.200 C 302.456 135.530,302.611 136.160,302.800 136.600 C 303.017 137.104,303.144 137.178,303.144 136.800 C 303.144 136.470,302.989 135.840,302.800 135.400 C 302.583 134.896,302.456 134.822,302.456 135.200 M97.000 136.800 C 96.848 137.491,96.814 138.147,96.924 138.257 C 97.034 138.367,97.248 137.891,97.400 137.200 C 97.552 136.509,97.586 135.853,97.476 135.743 C 97.366 135.633,97.152 136.109,97.000 136.800 M114.673 136.153 C 114.523 136.545,114.411 137.166,114.425 137.533 C 114.442 137.975,114.581 137.874,114.837 137.234 C 115.049 136.703,115.161 136.082,115.085 135.854 C 115.009 135.627,114.824 135.761,114.673 136.153 M285.044 136.600 C 285.373 138.071,285.602 138.390,285.594 137.367 C 285.591 136.945,285.405 136.330,285.182 136.000 C 284.885 135.562,284.848 135.724,285.044 136.600 M303.268 138.600 C 303.262 139.040,303.411 139.760,303.600 140.200 C 304.038 141.219,304.038 140.168,303.600 138.800 C 303.343 137.996,303.277 137.957,303.268 138.600 M113.873 138.953 C 113.723 139.345,113.611 139.966,113.625 140.333 C 113.642 140.775,113.781 140.674,114.037 140.034 C 114.249 139.503,114.361 138.882,114.285 138.654 C 114.209 138.427,114.024 138.561,113.873 138.953 M285.656 138.800 C 285.656 139.130,285.811 139.760,286.000 140.200 C 286.217 140.704,286.344 140.778,286.344 140.400 C 286.344 140.070,286.189 139.440,286.000 139.000 C 285.783 138.496,285.656 138.422,285.656 138.800 M96.178 140.578 C 96.027 141.381,96.004 142.137,96.126 142.260 C 96.248 142.382,96.472 141.825,96.622 141.022 C 96.773 140.219,96.796 139.463,96.674 139.340 C 96.552 139.218,96.328 139.775,96.178 140.578 M112.978 142.978 C 112.827 143.781,112.794 144.527,112.904 144.637 C 113.014 144.747,113.227 144.181,113.378 143.378 C 113.528 142.575,113.562 141.828,113.452 141.718 C 113.342 141.608,113.128 142.175,112.978 142.978 M286.662 143.000 C 286.796 143.880,286.972 144.675,287.053 144.767 C 287.356 145.110,287.129 142.968,286.781 142.200 C 286.529 141.642,286.493 141.885,286.662 143.000 M304.087 142.400 C 304.083 142.950,304.224 143.850,304.400 144.400 C 304.831 145.744,304.831 144.292,304.400 142.600 C 304.126 141.522,304.094 141.502,304.087 142.400 M95.385 145.385 C 95.230 146.623,95.200 147.734,95.319 147.852 C 95.437 147.970,95.661 147.054,95.815 145.815 C 95.970 144.577,96.000 143.466,95.881 143.348 C 95.763 143.230,95.539 144.146,95.385 145.385 M112.188 147.338 C 112.039 148.335,111.999 149.386,112.100 149.675 C 112.200 149.964,112.418 149.243,112.582 148.074 C 112.747 146.905,112.787 145.854,112.671 145.738 C 112.555 145.622,112.338 146.342,112.188 147.338 M287.270 146.200 C 287.257 146.640,287.395 147.720,287.577 148.600 C 287.855 149.945,287.908 150.009,287.907 149.000 C 287.905 147.599,287.308 144.970,287.270 146.200 M305.077 149.800 C 305.198 151.560,305.365 153.075,305.449 153.167 C 305.719 153.464,305.550 150.250,305.199 148.400 C 304.942 147.047,304.912 147.394,305.077 149.800 M94.657 151.659 C 94.311 154.973,94.342 161.690,94.706 162.257 C 94.868 162.508,95.033 159.673,95.073 155.957 C 95.152 148.705,95.062 147.780,94.657 151.659 M111.503 153.800 C 111.339 155.340,111.229 157.860,111.259 159.400 C 111.308 162.020,111.334 161.930,111.665 158.000 C 112.086 152.994,111.953 149.554,111.503 153.800 M288.299 156.200 C 288.414 158.840,288.574 161.075,288.654 161.167 C 288.914 161.464,288.730 155.864,288.406 153.600 C 288.201 152.174,288.164 153.089,288.299 156.200 M305.724 158.600 C 305.726 159.920,305.801 160.412,305.890 159.693 C 305.979 158.974,305.977 157.894,305.886 157.293 C 305.795 156.692,305.722 157.280,305.724 158.600 M305.200 162.478 C 305.200 162.813,304.750 163.751,304.200 164.562 C 302.904 166.471,302.901 166.960,304.196 165.205 C 305.300 163.709,305.798 162.464,305.437 162.103 C 305.306 161.973,305.200 162.142,305.200 162.478 M95.201 163.375 C 95.196 164.634,99.231 168.503,99.876 167.858 C 100.017 167.716,99.937 167.600,99.697 167.600 C 99.022 167.600,96.770 165.570,95.945 164.217 C 95.537 163.548,95.202 163.169,95.201 163.375 M109.077 165.584 C 107.439 167.423,105.713 168.138,102.898 168.144 C 101.498 168.147,100.617 168.291,100.898 168.469 C 102.902 169.742,108.712 167.606,110.051 165.104 C 110.600 164.079,110.276 164.238,109.077 165.584 M290.862 165.986 C 290.945 166.236,291.641 166.809,292.407 167.259 C 293.173 167.709,293.440 167.786,293.000 167.431 C 292.560 167.075,291.865 166.503,291.455 166.158 C 291.046 165.813,290.779 165.736,290.862 165.986 M294.715 168.472 C 295.092 168.621,296.210 168.744,297.200 168.744 C 298.190 168.744,299.308 168.621,299.685 168.472 C 300.062 168.322,298.944 168.200,297.200 168.200 C 295.456 168.200,294.338 168.322,294.715 168.472 M52.800 177.400 C 52.283 177.950,52.032 178.400,52.242 178.400 C 52.452 178.400,52.883 178.040,53.200 177.600 C 53.976 176.524,54.866 176.593,56.017 177.818 C 56.811 178.664,56.891 178.951,56.484 179.518 C 55.436 180.980,55.536 181.265,57.998 183.830 C 60.755 186.701,61.033 188.188,59.092 189.691 C 58.601 190.071,58.412 190.386,58.671 190.391 C 59.382 190.405,60.800 188.413,60.800 187.400 C 60.800 186.392,59.751 184.915,57.435 182.661 C 56.110 181.372,55.931 181.014,56.329 180.461 C 57.301 179.111,57.281 178.728,56.177 177.576 C 54.800 176.138,54.023 176.098,52.800 177.400 M52.008 179.326 C 52.003 179.505,52.900 180.529,54.000 181.600 C 56.292 183.832,56.293 183.836,55.132 185.073 C 53.890 186.395,54.380 186.428,55.744 185.114 L 56.888 184.011 54.452 181.506 C 53.112 180.128,52.012 179.147,52.008 179.326 M341.280 183.680 C 341.016 183.944,340.806 184.349,340.813 184.580 C 340.820 184.811,341.064 184.685,341.356 184.301 C 342.045 183.394,344.292 184.077,344.806 185.350 C 345.086 186.043,345.154 186.070,345.175 185.494 C 345.222 184.180,342.192 182.768,341.280 183.680 M339.788 189.500 C 339.179 190.765,338.607 191.935,338.517 192.100 C 338.427 192.265,338.451 192.400,338.571 192.400 C 338.690 192.400,339.337 191.313,340.008 189.985 C 340.762 188.490,341.398 187.675,341.675 187.847 C 341.948 188.015,342.012 187.943,341.838 187.662 C 341.314 186.814,340.902 187.183,339.788 189.500 M333.382 188.982 C 332.700 189.664,332.417 190.366,332.454 191.282 C 332.498 192.339,332.541 192.402,332.671 191.600 C 333.120 188.832,335.330 187.607,337.413 188.972 C 338.423 189.634,339.200 189.527,339.200 188.727 C 339.200 188.432,339.047 188.429,338.699 188.718 C 338.345 189.011,337.970 188.967,337.422 188.567 C 336.230 187.695,334.490 187.874,333.382 188.982 M54.400 188.696 C 54.400 189.158,55.936 190.597,56.175 190.358 C 56.269 190.265,55.907 189.767,55.373 189.252 C 54.838 188.737,54.400 188.487,54.400 188.696 M95.500 188.695 C 96.655 188.776,98.545 188.776,99.700 188.695 C 100.855 188.614,99.910 188.548,97.600 188.548 C 95.290 188.548,94.345 188.614,95.500 188.695 M110.700 188.695 C 111.855 188.776,113.745 188.776,114.900 188.695 C 116.055 188.614,115.110 188.548,112.800 188.548 C 110.490 188.548,109.545 188.614,110.700 188.695 M285.100 188.695 C 286.255 188.776,288.145 188.776,289.300 188.695 C 290.455 188.614,289.510 188.548,287.200 188.548 C 284.890 188.548,283.945 188.614,285.100 188.695 M300.115 188.696 C 301.388 188.776,303.368 188.775,304.515 188.694 C 305.662 188.614,304.620 188.549,302.200 188.550 C 299.780 188.551,298.842 188.616,300.115 188.696 M86.000 189.221 C 85.570 189.514,85.854 189.554,87.000 189.362 C 88.984 189.030,89.304 188.798,87.767 188.806 C 87.125 188.809,86.330 188.996,86.000 189.221 M123.200 189.200 C 124.742 189.694,125.564 189.694,124.800 189.200 C 124.470 188.987,123.750 188.827,123.200 188.846 L 122.200 188.880 123.200 189.200 M275.600 189.200 C 274.836 189.694,275.658 189.694,277.200 189.200 L 278.200 188.880 277.200 188.846 C 276.650 188.827,275.930 188.987,275.600 189.200 M313.825 189.547 C 316.141 190.338,318.101 191.607,319.732 193.374 L 320.863 194.600 320.016 193.316 C 318.681 191.294,314.536 188.790,312.600 188.837 C 312.160 188.847,312.711 189.167,313.825 189.547 M272.339 190.752 C 271.340 191.386,270.121 192.511,269.630 193.252 L 268.737 194.600 269.868 193.347 C 270.491 192.658,271.890 191.533,272.978 190.847 C 274.066 190.161,274.777 189.600,274.557 189.600 C 274.337 189.600,273.339 190.119,272.339 190.752 M81.580 191.866 C 80.688 192.672,79.773 193.707,79.547 194.166 C 79.320 194.624,79.607 194.422,80.184 193.716 C 80.761 193.010,81.810 191.977,82.516 191.421 C 83.222 190.864,83.666 190.407,83.501 190.404 C 83.337 190.402,82.472 191.059,81.580 191.866 M129.070 192.270 C 130.132 193.331,131.214 194.560,131.476 195.000 C 131.739 195.440,131.964 195.600,131.976 195.356 C 132.007 194.779,128.950 191.308,127.929 190.762 C 127.495 190.530,128.009 191.208,129.070 192.270 M333.458 193.619 C 333.930 194.101,334.511 194.428,334.749 194.347 C 334.987 194.266,334.601 193.873,333.891 193.472 L 332.600 192.745 333.458 193.619 M337.200 193.600 C 336.650 194.030,336.397 194.386,336.638 194.391 C 336.879 194.396,337.402 194.040,337.800 193.600 C 338.712 192.592,338.488 192.592,337.200 193.600 M78.350 196.300 C 78.113 196.905,77.848 198.120,77.760 199.000 C 77.609 200.529,77.626 200.511,78.147 198.600 C 78.447 197.500,78.826 196.285,78.989 195.900 C 79.152 195.515,79.172 195.200,79.033 195.200 C 78.894 195.200,78.586 195.695,78.350 196.300 M267.400 197.200 C 267.250 197.673,267.217 198.150,267.327 198.260 C 267.437 198.370,267.650 198.073,267.800 197.600 C 267.950 197.127,267.983 196.650,267.873 196.540 C 267.763 196.430,267.550 196.727,267.400 197.200 M321.612 196.800 C 321.612 197.130,321.787 197.670,322.000 198.000 C 322.345 198.533,322.388 198.533,322.388 198.000 C 322.388 197.670,322.213 197.130,322.000 196.800 C 321.655 196.267,321.612 196.267,321.612 196.800 M132.962 240.332 C 132.983 263.504,133.125 281.774,133.277 280.932 C 133.663 278.798,133.626 201.767,133.239 199.800 C 133.065 198.920,132.940 217.159,132.962 240.332 M266.993 240.400 C 266.993 263.170,267.041 272.485,267.100 261.100 C 267.159 249.715,267.159 231.085,267.100 219.700 C 267.041 208.315,266.993 217.630,266.993 240.400 M322.479 211.300 C 322.403 214.284,322.434 214.398,323.300 214.354 C 323.950 214.320,324.010 214.257,323.517 214.128 C 322.970 213.984,322.807 213.374,322.696 211.074 L 322.559 208.200 322.479 211.300 M154.945 210.443 C 152.402 211.677,150.060 213.892,148.907 216.152 L 147.861 218.200 147.551 264.000 C 147.349 293.718,147.379 310.972,147.636 313.138 C 148.488 320.317,152.178 324.231,159.000 325.190 C 162.742 325.717,237.674 325.718,241.314 325.192 C 247.386 324.314,251.199 320.745,252.416 314.800 C 252.638 313.713,252.665 294.148,252.483 265.400 L 252.182 217.800 251.283 216.274 C 249.591 213.401,249.160 212.881,247.532 211.753 C 244.310 209.520,246.355 209.611,199.800 209.626 C 157.370 209.640,156.571 209.654,154.945 210.443 M71.781 216.900 L 70.200 218.600 71.900 217.019 C 73.481 215.548,73.784 215.200,73.481 215.200 C 73.416 215.200,72.651 215.965,71.781 216.900 M328.330 216.851 C 329.061 217.648,329.908 218.997,330.212 219.850 C 330.516 220.702,330.773 221.076,330.782 220.680 C 330.809 219.584,329.819 217.932,328.336 216.601 L 327.000 215.402 328.330 216.851 M69.385 240.200 C 69.385 250.980,69.437 255.333,69.500 249.872 C 69.563 244.412,69.563 235.592,69.500 230.272 C 69.437 224.953,69.385 229.420,69.385 240.200 M362.489 221.423 C 362.000 221.765,361.600 222.221,361.600 222.435 C 361.600 222.649,362.125 222.436,362.767 221.961 C 363.779 221.213,364.110 221.158,365.267 221.544 C 366.483 221.950,366.532 221.937,365.824 221.395 C 364.823 220.629,363.608 220.639,362.489 221.423 M330.985 240.200 C 330.985 250.540,331.036 254.827,331.100 249.728 C 331.163 244.628,331.163 236.168,331.100 230.928 C 331.037 225.687,330.985 229.860,330.985 240.200 M366.428 222.676 C 366.518 223.715,367.144 224.596,367.172 223.724 C 367.187 223.242,367.020 222.736,366.800 222.600 C 366.580 222.464,366.413 222.498,366.428 222.676 M361.646 225.513 C 361.619 226.058,361.238 226.571,360.700 226.788 L 359.800 227.149 360.713 227.175 C 361.707 227.202,362.175 226.460,361.880 225.323 C 361.734 224.758,361.683 224.799,361.646 225.513 M367.586 225.345 C 367.779 225.538,368.429 225.506,369.065 225.273 C 370.189 224.860,370.185 224.856,368.721 224.928 C 367.894 224.968,367.394 225.152,367.586 225.345 M371.746 225.629 C 373.336 226.880,373.172 228.917,371.400 229.922 C 370.960 230.172,370.825 230.381,371.100 230.388 C 372.000 230.410,373.200 228.825,373.200 227.616 C 373.200 226.485,371.926 224.800,371.071 224.800 C 370.862 224.800,371.166 225.173,371.746 225.629 M358.960 227.506 C 356.226 229.331,358.041 232.649,361.665 232.452 C 362.986 232.380,363.156 232.487,363.388 233.544 C 363.529 234.189,364.040 235.051,364.523 235.459 C 365.388 236.190,365.391 236.189,364.752 235.400 C 364.396 234.960,363.932 234.060,363.721 233.400 C 363.373 232.310,363.158 232.189,361.379 232.074 C 358.438 231.886,357.310 229.868,359.062 227.931 C 359.752 227.169,359.712 227.004,358.960 227.506 M368.893 233.200 C 368.893 233.970,368.975 234.285,369.076 233.900 C 369.176 233.515,369.176 232.885,369.076 232.500 C 368.975 232.115,368.893 232.430,368.893 233.200 M197.445 238.852 C 200.280 240.641,204.760 243.445,207.400 245.084 C 215.817 250.308,216.260 252.374,209.800 256.280 C 208.700 256.946,204.380 259.645,200.200 262.280 C 191.780 267.587,190.993 267.919,189.040 266.992 C 186.855 265.955,186.800 265.568,186.800 251.150 L 186.800 237.938 187.969 236.769 C 189.997 234.742,191.428 235.057,197.445 238.852 M69.616 260.120 C 69.581 260.829,70.805 262.668,72.064 263.799 L 73.400 264.998 72.147 263.599 C 71.457 262.830,70.610 261.660,70.263 261.000 C 69.916 260.340,69.625 259.944,69.616 260.120 M46.667 261.467 C 46.520 261.613,46.403 261.928,46.406 262.167 C 46.410 262.460,46.507 262.453,46.706 262.146 C 46.868 261.897,47.360 261.603,47.800 261.493 C 48.574 261.299,48.573 261.291,47.767 261.246 C 47.308 261.221,46.813 261.320,46.667 261.467 M49.800 262.000 C 50.240 262.189,50.870 262.344,51.200 262.344 C 51.578 262.344,51.504 262.217,51.000 262.000 C 50.560 261.811,49.930 261.656,49.600 261.656 C 49.222 261.656,49.296 261.783,49.800 262.000 M45.829 263.829 C 45.681 264.415,45.638 264.972,45.732 265.066 C 45.827 265.160,46.024 264.758,46.171 264.171 C 46.319 263.585,46.362 263.028,46.268 262.934 C 46.173 262.840,45.976 263.242,45.829 263.829 M326.200 264.890 C 325.760 265.146,324.770 265.458,324.000 265.584 L 322.600 265.813 322.587 273.507 L 322.573 281.201 322.695 273.600 L 322.817 266.000 323.829 266.000 C 324.790 266.000,327.200 264.992,327.200 264.590 C 327.200 264.331,327.119 264.355,326.200 264.890 M76.000 265.877 C 76.550 265.989,77.149 266.288,77.330 266.540 C 77.551 266.848,77.607 266.801,77.500 266.400 C 77.409 266.062,76.829 265.772,76.169 265.737 C 75.162 265.682,75.139 265.701,76.000 265.877 M45.000 266.800 C 44.850 267.273,44.817 267.750,44.927 267.860 C 45.037 267.970,45.250 267.673,45.400 267.200 C 45.550 266.727,45.583 266.250,45.473 266.140 C 45.363 266.030,45.150 266.327,45.000 266.800 M44.229 269.829 C 44.081 270.415,44.038 270.972,44.132 271.066 C 44.227 271.160,44.424 270.758,44.571 270.171 C 44.719 269.585,44.762 269.028,44.668 268.934 C 44.573 268.840,44.376 269.242,44.229 269.829 M45.829 271.029 C 45.681 271.615,45.638 272.172,45.732 272.266 C 45.827 272.360,46.024 271.958,46.171 271.371 C 46.319 270.785,46.362 270.228,46.268 270.134 C 46.173 270.040,45.976 270.442,45.829 271.029 M38.705 271.083 C 39.202 271.179,39.922 271.175,40.305 271.075 C 40.687 270.975,40.280 270.896,39.400 270.901 C 38.520 270.905,38.207 270.987,38.705 271.083 M36.120 272.100 C 33.288 275.209,34.570 280.871,38.086 280.788 C 38.369 280.781,38.240 280.577,37.800 280.333 C 34.396 278.451,33.844 274.178,36.726 272.027 C 37.317 271.586,37.606 271.220,37.370 271.213 C 37.133 271.206,36.571 271.605,36.120 272.100 M42.400 271.944 C 43.627 272.972,44.009 273.010,43.968 272.100 C 43.950 271.699,43.852 271.609,43.739 271.890 C 43.589 272.258,43.276 272.222,42.470 271.742 L 41.400 271.105 42.400 271.944 M45.049 273.815 C 44.912 274.173,44.815 274.766,44.834 275.133 C 44.853 275.500,45.027 275.269,45.221 274.620 C 45.598 273.358,45.465 272.733,45.049 273.815 M44.200 276.800 C 44.050 277.273,44.017 277.750,44.127 277.860 C 44.237 277.970,44.450 277.673,44.600 277.200 C 44.750 276.727,44.783 276.250,44.673 276.140 C 44.563 276.030,44.350 276.327,44.200 276.800 M43.380 278.832 C 43.233 279.070,42.547 279.610,41.856 280.031 C 41.165 280.452,40.822 280.798,41.094 280.799 C 41.606 280.800,44.413 278.432,43.924 278.412 C 43.772 278.405,43.527 278.595,43.380 278.832 M344.632 281.700 C 344.187 283.885,344.135 284.800,344.455 284.800 C 344.645 284.800,344.800 284.116,344.800 283.280 C 344.800 282.444,345.016 281.544,345.280 281.280 C 345.645 280.915,345.647 280.800,345.288 280.800 C 345.028 280.800,344.733 281.205,344.632 281.700 M347.567 281.500 C 347.773 281.885,348.039 282.515,348.158 282.900 C 348.303 283.367,348.745 283.582,349.487 283.546 C 350.478 283.497,350.498 283.472,349.668 283.314 C 349.082 283.202,348.585 282.703,348.329 281.968 C 348.105 281.326,347.758 280.800,347.557 280.800 C 347.342 280.800,347.346 281.086,347.567 281.500 M77.634 281.800 C 77.622 282.240,77.787 282.870,78.000 283.200 C 78.514 283.995,78.514 282.996,78.000 281.800 L 77.656 281.000 77.634 281.800 M267.450 283.200 C 267.805 284.614,268.705 286.296,269.297 286.651 C 269.694 286.890,269.698 286.828,269.318 286.357 C 269.052 286.029,268.467 284.960,268.017 283.980 C 267.567 283.001,267.312 282.650,267.450 283.200 M351.511 283.823 C 352.542 284.545,352.665 285.682,351.790 286.408 C 351.455 286.686,351.277 287.010,351.394 287.128 C 351.700 287.434,352.772 285.921,352.787 285.162 C 352.800 284.499,351.604 283.200,350.980 283.200 C 350.783 283.200,351.022 283.480,351.511 283.823 M342.175 285.627 C 341.097 286.819,342.067 288.546,343.915 288.726 C 344.871 288.819,345.363 289.155,345.813 290.026 C 346.670 291.682,346.927 291.492,346.119 289.800 C 345.651 288.817,345.186 288.400,344.559 288.400 C 342.434 288.400,341.425 286.208,343.100 285.232 C 343.485 285.008,343.603 284.819,343.362 284.812 C 343.121 284.805,342.587 285.172,342.175 285.627 M79.200 285.800 C 79.200 286.335,82.291 289.323,83.370 289.832 C 84.046 290.150,84.240 290.184,83.800 289.906 C 83.360 289.628,82.145 288.546,81.100 287.501 C 80.055 286.457,79.200 285.692,79.200 285.800 M130.162 287.259 C 129.743 287.731,128.698 288.631,127.840 289.259 C 126.982 289.886,126.474 290.400,126.712 290.400 C 127.161 290.400,131.581 286.442,131.162 286.415 C 131.031 286.407,130.581 286.786,130.162 287.259 M270.202 288.002 C 270.602 288.444,271.011 288.722,271.112 288.621 C 271.328 288.405,270.188 287.200,269.767 287.200 C 269.607 287.200,269.803 287.561,270.202 288.002 M251.920 302.100 C 251.773 318.409,251.142 320.254,244.566 323.600 L 242.600 324.600 200.000 324.600 L 157.400 324.600 155.660 323.672 C 153.011 322.258,150.537 319.760,149.308 317.257 L 148.200 315.000 148.070 302.468 C 147.998 295.575,148.037 289.680,148.157 289.368 C 148.344 288.881,155.816 288.800,200.207 288.800 L 252.040 288.800 251.920 302.100 M96.327 291.500 C 101.458 291.563,109.738 291.563,114.727 291.500 C 119.717 291.436,115.520 291.384,105.400 291.384 C 95.280 291.384,91.197 291.436,96.327 291.500 M285.500 291.500 C 290.615 291.563,298.985 291.563,304.100 291.500 C 309.215 291.436,305.030 291.385,294.800 291.385 C 284.570 291.385,280.385 291.436,285.500 291.500 M166.099 299.082 C 163.929 299.500,163.200 301.430,163.200 306.758 C 163.200 314.376,164.001 315.200,171.413 315.200 C 178.588 315.200,179.200 314.565,179.200 307.116 C 179.200 300.941,178.901 299.992,176.714 299.230 C 175.539 298.820,168.004 298.716,166.099 299.082 M194.416 299.675 C 193.182 301.000,193.169 312.769,194.400 314.000 C 195.370 314.970,197.678 315.065,198.571 314.171 C 199.709 313.033,199.484 300.244,198.311 299.423 C 197.050 298.540,195.372 298.648,194.416 299.675 M203.216 299.675 C 201.982 301.000,201.969 312.769,203.200 314.000 C 204.170 314.970,206.478 315.065,207.371 314.171 C 208.509 313.033,208.284 300.244,207.111 299.423 C 205.850 298.540,204.172 298.648,203.216 299.675 M224.769 301.169 C 223.275 302.664,223.295 303.624,224.857 305.404 L 226.115 306.836 225.057 307.940 C 221.982 311.150,225.628 315.307,228.956 312.385 L 230.339 311.171 231.722 312.385 C 234.844 315.127,238.822 311.239,235.800 308.400 C 234.542 307.218,234.550 306.905,235.867 305.530 C 237.312 304.022,237.303 302.191,235.844 300.937 C 234.327 299.632,234.000 299.704,230.737 302.069 C 230.187 302.467,229.828 302.332,228.624 301.274 C 226.832 299.701,226.253 299.685,224.769 301.169 M106.232 310.500 C 105.787 312.685,105.735 313.600,106.055 313.600 C 106.245 313.600,106.400 312.916,106.400 312.080 C 106.400 311.244,106.616 310.344,106.880 310.080 C 107.245 309.715,107.247 309.600,106.888 309.600 C 106.628 309.600,106.333 310.005,106.232 310.500 M109.167 310.300 C 109.373 310.685,109.639 311.315,109.758 311.700 C 109.903 312.167,110.345 312.382,111.087 312.346 C 112.078 312.297,112.098 312.272,111.268 312.114 C 110.682 312.002,110.185 311.503,109.929 310.768 C 109.705 310.126,109.358 309.600,109.157 309.600 C 108.942 309.600,108.946 309.886,109.167 310.300 M113.111 312.623 C 114.142 313.345,114.265 314.482,113.390 315.208 C 113.055 315.486,112.877 315.810,112.994 315.928 C 113.300 316.234,114.372 314.721,114.387 313.962 C 114.400 313.299,113.204 312.000,112.580 312.000 C 112.383 312.000,112.622 312.280,113.111 312.623 M103.775 314.427 C 102.697 315.619,103.667 317.346,105.515 317.526 C 106.471 317.619,106.963 317.955,107.413 318.826 C 108.270 320.482,108.527 320.292,107.719 318.600 C 107.251 317.617,106.786 317.200,106.159 317.200 C 104.034 317.200,103.025 315.008,104.700 314.032 C 105.085 313.808,105.203 313.619,104.962 313.612 C 104.721 313.605,104.187 313.972,103.775 314.427 " stroke="none" fill="#d3d4d4" fill-rule="evenodd"></path><path id="path4" d="M188.236 237.231 L 187.200 238.461 187.200 251.251 C 187.200 265.649,187.284 266.154,189.766 266.620 C 191.597 266.963,192.325 266.685,196.354 264.103 C 198.249 262.888,201.240 260.990,203.000 259.885 C 213.357 253.382,213.600 253.187,213.600 251.400 C 213.600 249.692,213.235 249.387,205.200 244.379 C 203.550 243.350,199.870 241.044,197.022 239.254 C 191.057 235.505,189.910 235.241,188.236 237.231 " stroke="none" fill="#949494" fill-rule="evenodd"></path></g></svg>