<svg id="Слой_1" data-name="Слой 1" xmlns="http://www.w3.org/2000/svg" viewBox="0 0 127 33"><defs><style>.cls-1,.cls-2{fill:#fff;}.cls-2{font-size:13.47px;font-family:ProductSans, Product Sans;}.cls-3{letter-spacing:-0.01em;}.cls-4{letter-spacing:0.01em;}.cls-5{letter-spacing:0em;}.cls-6{letter-spacing:-0.01em;}.cls-7{letter-spacing:0em;}</style></defs><rect width="127" height="33" rx="5.07"/><path class="cls-1" d="M18,26V13.06a1.14,1.14,0,0,1,.64-1l7.5,7.5L18.64,27A1.15,1.15,0,0,1,18,26m10.52-4.1-8.2,4.74,6.47-6.46,1.73,1.72m2.55-3.28a1.2,1.2,0,0,1,.45.91,1.13,1.13,0,0,1-.44.9l-1.74,1-1.91-1.9,1.91-1.91,1.73,1m-10.75-6.2,8.2,4.73-1.73,1.73Z" transform="translate(-4 -3)"/><text class="cls-2" transform="translate(40.77 20.58)"><tspan class="cls-3">G</tspan><tspan x="10.72" y="0">oog</tspan><tspan class="cls-3" x="33.58" y="0">l</tspan><tspan x="36.26" y="0">e </tspan><tspan class="cls-4" x="46.44" y="0">P</tspan><tspan class="cls-5" x="54.11" y="0">l</tspan><tspan class="cls-6" x="56.79" y="0">a</tspan><tspan class="cls-7" x="63.53" y="0">y</tspan></text></svg>